<svg viewBox="0 0 240 120" fill="none" xmlns="http://www.w3.org/2000/svg">
<path d="M189.231 120C189.231 120 205.823 84.7613 213.785 83.9187C214.254 83.869 214.608 84.0972 214.687 84.3766C216.858 92.0252 232.438 120 223.311 120H189.231Z" fill="url(#paint0_linear_8075_3037)"/>
<path d="M184.441 87.3349C183.013 91.6921 178.046 97.4191 176.313 100.024C173.959 103.124 176.554 117.103 178.871 119.798C178.988 119.935 179.181 120 179.382 120H204.851C204.946 120 205.037 119.986 205.117 119.944C205.918 119.517 210.251 116.312 205.503 98.4642C205.33 97.8143 204.146 97.8047 203.88 98.4317C203.012 100.483 201.968 101.342 201.186 101.692C200.766 101.879 200.356 101.536 200.33 101.135C200.184 98.8745 198.644 93.9367 197.6 91.1699C197.384 90.5961 196.533 90.6604 196.359 91.2443C195.227 95.031 193.388 97.629 192.046 99.627C191.657 100.206 190.231 100.025 190.098 99.3679C189.171 94.8231 187.654 90.1929 186.032 87.1145C185.73 86.5409 184.64 86.7296 184.441 87.3349Z" fill="url(#paint1_linear_8075_3037)"/>
<path d="M214.07 117.359C219.038 111.686 205.299 95.3564 201.121 79.0152C200.965 78.405 199.47 78.2508 198.951 78.7975C183.917 94.638 183.295 108.222 185.637 113.649C187.617 118.236 188.958 119.984 200.494 119.984C212.029 119.984 212.106 119.219 214.07 117.359Z" fill="url(#paint2_linear_8075_3037)"/>
<path d="M66.346 108.152L59.2787 111.074L50.769 120H189.23L182.596 110.566C179.471 109.139 173.163 106.285 172.932 106.285C172.702 106.285 159.856 105.946 153.461 105.777L142.211 104.325L125.913 102.946L115.384 102.504L96.0575 96.9232L80.769 94.6155L70.9613 98.5197L66.346 102.504V108.152Z" fill="url(#paint3_radial_8075_3037)"/>
<path d="M66.346 108.152L59.2787 111.074L50.769 120H189.23L182.596 110.566C179.471 109.139 173.163 106.285 172.932 106.285C172.702 106.285 159.856 105.946 153.461 105.777L142.211 104.325L125.913 102.946L115.384 102.504L96.0575 96.9232L80.769 94.6155L70.9613 98.5197L66.346 102.504V108.152Z" fill="url(#paint4_radial_8075_3037)" fill-opacity="0.77"/>
<path d="M66.346 108.152L59.2787 111.074L50.769 120H189.23L182.596 110.566C179.471 109.139 173.163 106.285 172.932 106.285C172.702 106.285 159.856 105.946 153.461 105.777L142.211 104.325L125.913 102.946L115.384 102.504L96.0575 96.9232L80.769 94.6155L70.9613 98.5197L66.346 102.504V108.152Z" fill="url(#paint5_radial_8075_3037)" fill-opacity="0.77"/>
<path d="M66.346 108.152L59.2787 111.074L50.769 120H189.23L182.596 110.566C179.471 109.139 173.163 106.285 172.932 106.285C172.702 106.285 159.856 105.946 153.461 105.777L142.211 104.325L125.913 102.946L115.384 102.504L96.0575 96.9232L80.769 94.6155L70.9613 98.5197L66.346 102.504V108.152Z" fill="url(#paint6_radial_8075_3037)" fill-opacity="0.77"/>
<path d="M76.9122 102.693C77.162 102.359 77.4796 102.041 77.8455 101.742C78.6115 101.116 78.2034 99.1073 77.2451 99.2404C75.7484 99.4484 74.4551 99.6767 73.5319 99.8634C73.1584 99.9389 72.8923 100.288 72.8922 100.692L72.8918 103.57C72.8918 103.863 72.7502 104.136 72.5168 104.292L69.3969 106.383C69.0876 106.591 68.9502 106.991 69.0434 107.367C70.198 112.018 70.0729 120.212 70.8815 118.86C71.432 117.941 72.8918 109.43 72.8918 108.082C72.8918 106.735 74.902 105.388 76.9122 102.693Z" fill="url(#paint7_linear_8075_3037)"/>
<path d="M110.77 101.538L95.4035 100.851C94.9142 100.896 94.5405 101.297 94.5405 101.777C94.5405 102.519 94.8081 103.846 93.9035 104.143C93.8316 104.167 93.7588 104.19 93.6909 104.224L90.6866 105.705C90.1986 105.946 89.9894 106.621 89.7927 107.128C88.5604 110.307 77.2673 116.725 75.7731 117.692C75.0102 118.185 74.0638 117.45 74.3386 116.634C74.3583 116.576 74.3902 116.522 74.4258 116.472L78.4091 110.845C78.4447 110.794 78.4747 110.74 78.4746 110.679C78.4745 110.229 78.0193 108.575 78.2345 108.492C82.1006 106.991 85.3123 108.458 89.6283 101.833C89.7243 101.686 89.7882 101.507 89.8889 101.363C90.3344 100.725 91.9726 99.3393 92.3087 99.2306C99.1567 97.0158 103.6 100.58 110.77 101.538Z" fill="url(#paint8_linear_8075_3037)"/>
<path d="M116.199 102.686L123.435 103.059C124.503 103.114 124.638 104.638 123.596 104.88L121.612 105.34C121.514 105.363 121.42 105.402 121.335 105.455L115.511 109.06C115.239 109.228 115.073 109.525 115.073 109.845V111.617C115.073 111.972 114.871 112.29 114.561 112.444C114.473 112.488 114.382 112.528 114.302 112.585L107.544 117.399C107.177 117.661 106.668 117.622 106.38 117.276C104.705 115.269 105.275 113.83 105.996 113.245L110.813 109.331L116.178 105.179C116.61 104.845 116.486 104.164 115.965 104.002C115.207 103.768 115.407 102.645 116.199 102.686Z" fill="url(#paint9_linear_8075_3037)"/>
<path d="M127.545 107.666L137.577 106.172C137.66 106.16 137.744 106.163 137.827 106.182L143.287 107.401C144.231 107.612 144.109 109.616 143.151 109.703C140.553 109.939 137.531 110.282 134.258 110.769C127.076 111.838 122.841 116.081 121.1 118.858C120.77 119.383 118.803 119.48 118.639 118.858C117.678 115.221 124.103 110.161 127.222 107.803C127.32 107.728 127.429 107.683 127.545 107.666Z" fill="url(#paint10_linear_8075_3037)"/>
<path d="M84.4079 68.8433C84.5521 64.6606 78.529 61.6576 78.1752 53.7985C83.944 38.0774 95.236 50.617 93.9877 54.8518C92.6908 59.2514 90.9248 64.407 92.6024 70.6515C91.5928 74.113 88.8184 93.8015 87.9531 95.3881C87.0877 96.9746 82.8224 98.1285 79.2989 98.1285C76.4592 98.1285 76.8468 94.2086 79.2988 93.3432C81.7507 92.4778 83.9747 92.5257 84.1189 86.6122C84.2632 80.6988 84.2636 73.0259 84.4079 68.8433Z" fill="url(#paint11_radial_8075_3037)"/>
<path d="M84.4079 68.8433C84.5521 64.6606 78.529 61.6576 78.1752 53.7985C83.944 38.0774 95.236 50.617 93.9877 54.8518C92.6908 59.2514 90.9248 64.407 92.6024 70.6515C91.5928 74.113 88.8184 93.8015 87.9531 95.3881C87.0877 96.9746 82.8224 98.1285 79.2989 98.1285C76.4592 98.1285 76.8468 94.2086 79.2988 93.3432C81.7507 92.4778 83.9747 92.5257 84.1189 86.6122C84.2632 80.6988 84.2636 73.0259 84.4079 68.8433Z" fill="url(#paint12_radial_8075_3037)"/>
<path d="M84.4079 68.8433C84.5521 64.6606 78.529 61.6576 78.1752 53.7985C83.944 38.0774 95.236 50.617 93.9877 54.8518C92.6908 59.2514 90.9248 64.407 92.6024 70.6515C91.5928 74.113 88.8184 93.8015 87.9531 95.3881C87.0877 96.9746 82.8224 98.1285 79.2989 98.1285C76.4592 98.1285 76.8468 94.2086 79.2988 93.3432C81.7507 92.4778 83.9747 92.5257 84.1189 86.6122C84.2632 80.6988 84.2636 73.0259 84.4079 68.8433Z" fill="url(#paint13_radial_8075_3037)"/>
<path d="M123.563 82.1299C116.063 74.1972 115.342 61.2165 117.217 57.0338C122.986 47.0819 133.226 54.2934 135.39 58.1876C137.553 62.0819 133.659 70.303 131.784 75.928C129.909 81.553 137.121 87.0338 136.688 89.3415C136.255 91.6491 127.746 104.197 125.871 104.053C123.996 103.909 115.818 104.279 116.684 101.972C117.234 100.504 120.101 99.4258 122.171 99.4311C123.009 99.4332 123.919 99.2036 124.441 98.5493C125.403 97.3444 126.734 95.7143 127.746 94.5338C129.476 92.5145 131.063 90.0626 123.563 82.1299Z" fill="url(#paint14_radial_8075_3037)"/>
<path d="M123.563 82.1299C116.063 74.1972 115.342 61.2165 117.217 57.0338C122.986 47.0819 133.226 54.2934 135.39 58.1876C137.553 62.0819 133.659 70.303 131.784 75.928C129.909 81.553 137.121 87.0338 136.688 89.3415C136.255 91.6491 127.746 104.197 125.871 104.053C123.996 103.909 115.818 104.279 116.684 101.972C117.234 100.504 120.101 99.4258 122.171 99.4311C123.009 99.4332 123.919 99.2036 124.441 98.5493C125.403 97.3444 126.734 95.7143 127.746 94.5338C129.476 92.5145 131.063 90.0626 123.563 82.1299Z" fill="url(#paint15_radial_8075_3037)"/>
<path d="M123.563 82.1299C116.063 74.1972 115.342 61.2165 117.217 57.0338C122.986 47.0819 133.226 54.2934 135.39 58.1876C137.553 62.0819 133.659 70.303 131.784 75.928C129.909 81.553 137.121 87.0338 136.688 89.3415C136.255 91.6491 127.746 104.197 125.871 104.053C123.996 103.909 115.818 104.279 116.684 101.972C117.234 100.504 120.101 99.4258 122.171 99.4311C123.009 99.4332 123.919 99.2036 124.441 98.5493C125.403 97.3444 126.734 95.7143 127.746 94.5338C129.476 92.5145 131.063 90.0626 123.563 82.1299Z" fill="url(#paint16_radial_8075_3037)"/>
<path d="M127.932 76.8753C117.548 67.5003 124.903 53.6541 130.24 50.3369C140.913 45.4331 146.105 59.7119 143.365 67.0677C141.173 72.9523 147.548 82.308 150.721 86.8273C149.855 90.7215 150.288 106.875 148.269 108.029C146.25 109.183 140.048 109.76 139.038 108.029C137.443 105.294 142.596 103.895 144.23 103.125L145.096 88.8465C142.836 87.9811 136.24 84.3753 127.932 76.8753Z" fill="url(#paint17_radial_8075_3037)"/>
<path d="M127.932 76.8753C117.548 67.5003 124.903 53.6541 130.24 50.3369C140.913 45.4331 146.105 59.7119 143.365 67.0677C141.173 72.9523 147.548 82.308 150.721 86.8273C149.855 90.7215 150.288 106.875 148.269 108.029C146.25 109.183 140.048 109.76 139.038 108.029C137.443 105.294 142.596 103.895 144.23 103.125L145.096 88.8465C142.836 87.9811 136.24 84.3753 127.932 76.8753Z" fill="url(#paint18_radial_8075_3037)"/>
<path d="M127.932 76.8753C117.548 67.5003 124.903 53.6541 130.24 50.3369C140.913 45.4331 146.105 59.7119 143.365 67.0677C141.173 72.9523 147.548 82.308 150.721 86.8273C149.855 90.7215 150.288 106.875 148.269 108.029C146.25 109.183 140.048 109.76 139.038 108.029C137.443 105.294 142.596 103.895 144.23 103.125L145.096 88.8465C142.836 87.9811 136.24 84.3753 127.932 76.8753Z" fill="url(#paint19_radial_8075_3037)"/>
<path d="M153.321 67.0213C149.218 60.7164 153.75 57.6923 146.394 50.4807C144.664 48.4134 139.846 44.2788 134.423 44.2788C129 44.2788 135.048 51.3942 138.749 54.9519C137.98 58.4615 138.173 67.9038 145.096 77.5961C153.173 88.9038 174.952 79.3269 169.327 79.9038C164.827 80.3653 157.596 75.8653 155.48 73.5576L161.301 74.5303C159.236 73.6807 156.306 71.6084 153.321 67.0213Z" fill="url(#paint20_radial_8075_3037)"/>
<path d="M153.321 67.0213C149.218 60.7164 153.75 57.6923 146.394 50.4807C144.664 48.4134 139.846 44.2788 134.423 44.2788C129 44.2788 135.048 51.3942 138.749 54.9519C137.98 58.4615 138.173 67.9038 145.096 77.5961C153.173 88.9038 174.952 79.3269 169.327 79.9038C164.827 80.3653 157.596 75.8653 155.48 73.5576L161.301 74.5303C159.236 73.6807 156.306 71.6084 153.321 67.0213Z" fill="url(#paint21_radial_8075_3037)"/>
<path d="M153.321 67.0213C149.218 60.7164 153.75 57.6923 146.394 50.4807C144.664 48.4134 139.846 44.2788 134.423 44.2788C129 44.2788 135.048 51.3942 138.749 54.9519C137.98 58.4615 138.173 67.9038 145.096 77.5961C153.173 88.9038 174.952 79.3269 169.327 79.9038C164.827 80.3653 157.596 75.8653 155.48 73.5576L161.301 74.5303C159.236 73.6807 156.306 71.6084 153.321 67.0213Z" fill="url(#paint22_radial_8075_3037)"/>
<path d="M131.393 42.8362C120.287 40.6728 110.335 39.5189 102.258 33.8939C84.7203 22.5861 71.2489 38.7978 71.6816 44.2785C72.1142 49.7593 74.2777 56.2497 90.5758 64.7593C103.614 71.567 122.066 67.5958 128.076 64.7593C132.547 64.7593 142.692 66.3283 143.509 61.8746C145.095 53.2208 142.499 44.9997 131.393 42.8362Z" fill="url(#paint23_radial_8075_3037)"/>
<path d="M131.393 42.8362C120.287 40.6728 110.335 39.5189 102.258 33.8939C84.7203 22.5861 71.2489 38.7978 71.6816 44.2785C72.1142 49.7593 74.2777 56.2497 90.5758 64.7593C103.614 71.567 122.066 67.5958 128.076 64.7593C132.547 64.7593 142.692 66.3283 143.509 61.8746C145.095 53.2208 142.499 44.9997 131.393 42.8362Z" fill="url(#paint24_radial_8075_3037)"/>
<path d="M131.393 42.8362C120.287 40.6728 110.335 39.5189 102.258 33.8939C84.7203 22.5861 71.2489 38.7978 71.6816 44.2785C72.1142 49.7593 74.2777 56.2497 90.5758 64.7593C103.614 71.567 122.066 67.5958 128.076 64.7593C132.547 64.7593 142.692 66.3283 143.509 61.8746C145.095 53.2208 142.499 44.9997 131.393 42.8362Z" fill="url(#paint25_radial_8075_3037)"/>
<path d="M90.3297 62.4145C86.5797 51.3087 87.8369 50.4809 91.7311 45.2886C101.971 36.6348 106.212 50.692 103.439 57.8766C101.693 62.3998 101.116 65.5658 102.619 71.5386C101.609 76.2982 99.7954 96.0955 97.8449 97.8602C94.2392 100.168 85.77 101.297 85.77 98.5568C85.77 95.8164 87.1833 94.5475 92.1783 93.8664C95.3514 93.4337 94.7597 75.0001 94.6155 71.5386C94.5001 68.7693 90.9066 64.9145 90.3297 62.4145Z" fill="url(#paint26_radial_8075_3037)"/>
<path d="M90.3297 62.4145C86.5797 51.3087 87.8369 50.4809 91.7311 45.2886C101.971 36.6348 106.212 50.692 103.439 57.8766C101.693 62.3998 101.116 65.5658 102.619 71.5386C101.609 76.2982 99.7954 96.0955 97.8449 97.8602C94.2392 100.168 85.77 101.297 85.77 98.5568C85.77 95.8164 87.1833 94.5475 92.1783 93.8664C95.3514 93.4337 94.7597 75.0001 94.6155 71.5386C94.5001 68.7693 90.9066 64.9145 90.3297 62.4145Z" fill="url(#paint27_radial_8075_3037)"/>
<path d="M90.3297 62.4145C86.5797 51.3087 87.8369 50.4809 91.7311 45.2886C101.971 36.6348 106.212 50.692 103.439 57.8766C101.693 62.3998 101.116 65.5658 102.619 71.5386C101.609 76.2982 99.7954 96.0955 97.8449 97.8602C94.2392 100.168 85.77 101.297 85.77 98.5568C85.77 95.8164 87.1833 94.5475 92.1783 93.8664C95.3514 93.4337 94.7597 75.0001 94.6155 71.5386C94.5001 68.7693 90.9066 64.9145 90.3297 62.4145Z" fill="url(#paint28_radial_8075_3037)"/>
<path d="M90.3297 62.4145C86.5797 51.3087 87.8369 50.4809 91.7311 45.2886C101.971 36.6348 106.212 50.692 103.439 57.8766C101.693 62.3998 101.116 65.5658 102.619 71.5386C101.609 76.2982 99.7954 96.0955 97.8449 97.8602C94.2392 100.168 85.77 101.297 85.77 98.5568C85.77 95.8164 87.1833 94.5475 92.1783 93.8664C95.3514 93.4337 94.7597 75.0001 94.6155 71.5386C94.5001 68.7693 90.9066 64.9145 90.3297 62.4145Z" fill="url(#paint29_radial_8075_3037)"/>
<path d="M127.932 76.8753C117.548 67.5003 124.903 53.6541 130.24 50.3369C140.913 45.4331 146.105 59.7119 143.365 67.0677C141.173 72.9523 147.548 82.308 150.721 86.8273C149.855 90.7215 150.288 106.875 148.269 108.029C146.25 109.183 138.125 109.916 137.452 108.029C136.286 104.766 140.456 104.265 142.963 103.787C143.841 103.62 144.375 102.843 144.375 101.949V89.135C142.115 88.2696 136.24 84.3753 127.932 76.8753Z" fill="url(#paint30_radial_8075_3037)"/>
<path d="M127.932 76.8753C117.548 67.5003 124.903 53.6541 130.24 50.3369C140.913 45.4331 146.105 59.7119 143.365 67.0677C141.173 72.9523 147.548 82.308 150.721 86.8273C149.855 90.7215 150.288 106.875 148.269 108.029C146.25 109.183 138.125 109.916 137.452 108.029C136.286 104.766 140.456 104.265 142.963 103.787C143.841 103.62 144.375 102.843 144.375 101.949V89.135C142.115 88.2696 136.24 84.3753 127.932 76.8753Z" fill="url(#paint31_radial_8075_3037)"/>
<path d="M127.932 76.8753C117.548 67.5003 124.903 53.6541 130.24 50.3369C140.913 45.4331 146.105 59.7119 143.365 67.0677C141.173 72.9523 147.548 82.308 150.721 86.8273C149.855 90.7215 150.288 106.875 148.269 108.029C146.25 109.183 138.125 109.916 137.452 108.029C136.286 104.766 140.456 104.265 142.963 103.787C143.841 103.62 144.375 102.843 144.375 101.949V89.135C142.115 88.2696 136.24 84.3753 127.932 76.8753Z" fill="url(#paint32_radial_8075_3037)"/>
<path d="M127.932 76.8753C117.548 67.5003 124.903 53.6541 130.24 50.3369C140.913 45.4331 146.105 59.7119 143.365 67.0677C141.173 72.9523 147.548 82.308 150.721 86.8273C149.855 90.7215 150.288 106.875 148.269 108.029C146.25 109.183 138.125 109.916 137.452 108.029C136.286 104.766 140.456 104.265 142.963 103.787C143.841 103.62 144.375 102.843 144.375 101.949V89.135C142.115 88.2696 136.24 84.3753 127.932 76.8753Z" fill="url(#paint33_radial_8075_3037)"/>
<path d="M74.133 13.4136C73.9167 11.7549 70.5274 8.65399 68.7966 7.35592C68.3468 7.01784 66.633 5.33667 66.4167 6.20206C66.2003 7.06744 66.1282 13.4136 67.1378 13.9184C68.1474 14.4232 74.3494 15.0722 74.133 13.4136Z" fill="url(#paint34_radial_8075_3037)"/>
<path d="M67.1994 13.9465C67.5046 13.8796 67.7591 13.7946 67.9322 13.7023C69.2663 13.2335 69.9514 11.4126 68.437 9.10493C67.7667 8.08359 66.3677 5.76764 66.3034 7.51118C66.26 8.68982 66.129 13.2516 67.1994 13.9465Z" fill="url(#paint35_linear_8075_3037)"/>
<path d="M69.9521 41.5384C68.1059 42.923 67.1633 46.7307 66.9227 48.4614C63.9466 43.4561 66.5533 36.5476 65.9363 32.6151C66.1037 27.523 58.8463 31.0095 56.106 29.7114C54.2282 28.8219 52.7808 25.6823 52.0718 23.5913C51.8996 23.0835 52.242 22.5533 52.7655 22.4373C68.1847 19.0204 60.5166 11.6885 71.5386 11.9711C82.7886 12.2595 88.8463 22.2115 91.0098 25.9615C92.7406 28.9615 96.9232 31.1538 98.7982 31.8749C102.029 35.6826 100.144 39.423 98.7982 40.8172C99.1444 38.6249 97.1156 36.6345 96.0579 35.9134C96.7502 40.5288 90.4809 46.2018 87.2598 48.4614C88.0675 46.4999 87.5963 44.3749 87.2598 43.5576C82.8752 47.0191 83.029 52.9807 83.654 55.5287C80.3079 54.6057 81.0098 52.0672 81.779 50.9134C77.9713 55.8749 79.2309 60.7691 80.3367 62.5961C75.2598 59.7114 73.8944 51.9711 73.8463 48.4614C71.7694 50.423 71.9233 54.7595 72.2598 56.6826C68.4521 53.3364 69.1348 45.1922 69.9521 41.5384Z" fill="url(#paint36_radial_8075_3037)"/>
<path d="M69.9521 41.5384C68.1059 42.923 67.1633 46.7307 66.9227 48.4614C63.9466 43.4561 66.5533 36.5476 65.9363 32.6151C66.1037 27.523 58.8463 31.0095 56.106 29.7114C54.2282 28.8219 52.7808 25.6823 52.0718 23.5913C51.8996 23.0835 52.242 22.5533 52.7655 22.4373C68.1847 19.0204 60.5166 11.6885 71.5386 11.9711C82.7886 12.2595 88.8463 22.2115 91.0098 25.9615C92.7406 28.9615 96.9232 31.1538 98.7982 31.8749C102.029 35.6826 100.144 39.423 98.7982 40.8172C99.1444 38.6249 97.1156 36.6345 96.0579 35.9134C96.7502 40.5288 90.4809 46.2018 87.2598 48.4614C88.0675 46.4999 87.5963 44.3749 87.2598 43.5576C82.8752 47.0191 83.029 52.9807 83.654 55.5287C80.3079 54.6057 81.0098 52.0672 81.779 50.9134C77.9713 55.8749 79.2309 60.7691 80.3367 62.5961C75.2598 59.7114 73.8944 51.9711 73.8463 48.4614C71.7694 50.423 71.9233 54.7595 72.2598 56.6826C68.4521 53.3364 69.1348 45.1922 69.9521 41.5384Z" fill="url(#paint37_radial_8075_3037)"/>
<path d="M69.9521 41.5384C68.1059 42.923 67.1633 46.7307 66.9227 48.4614C63.9466 43.4561 66.5533 36.5476 65.9363 32.6151C66.1037 27.523 58.8463 31.0095 56.106 29.7114C54.2282 28.8219 52.7808 25.6823 52.0718 23.5913C51.8996 23.0835 52.242 22.5533 52.7655 22.4373C68.1847 19.0204 60.5166 11.6885 71.5386 11.9711C82.7886 12.2595 88.8463 22.2115 91.0098 25.9615C92.7406 28.9615 96.9232 31.1538 98.7982 31.8749C102.029 35.6826 100.144 39.423 98.7982 40.8172C99.1444 38.6249 97.1156 36.6345 96.0579 35.9134C96.7502 40.5288 90.4809 46.2018 87.2598 48.4614C88.0675 46.4999 87.5963 44.3749 87.2598 43.5576C82.8752 47.0191 83.029 52.9807 83.654 55.5287C80.3079 54.6057 81.0098 52.0672 81.779 50.9134C77.9713 55.8749 79.2309 60.7691 80.3367 62.5961C75.2598 59.7114 73.8944 51.9711 73.8463 48.4614C71.7694 50.423 71.9233 54.7595 72.2598 56.6826C68.4521 53.3364 69.1348 45.1922 69.9521 41.5384Z" fill="url(#paint38_radial_8075_3037)"/>
<path d="M69.9521 41.5384C68.1059 42.923 67.1633 46.7307 66.9227 48.4614C63.9466 43.4561 66.5533 36.5476 65.9363 32.6151C66.1037 27.523 58.8463 31.0095 56.106 29.7114C54.2282 28.8219 52.7808 25.6823 52.0718 23.5913C51.8996 23.0835 52.242 22.5533 52.7655 22.4373C68.1847 19.0204 60.5166 11.6885 71.5386 11.9711C82.7886 12.2595 88.8463 22.2115 91.0098 25.9615C92.7406 28.9615 96.9232 31.1538 98.7982 31.8749C102.029 35.6826 100.144 39.423 98.7982 40.8172C99.1444 38.6249 97.1156 36.6345 96.0579 35.9134C96.7502 40.5288 90.4809 46.2018 87.2598 48.4614C88.0675 46.4999 87.5963 44.3749 87.2598 43.5576C82.8752 47.0191 83.029 52.9807 83.654 55.5287C80.3079 54.6057 81.0098 52.0672 81.779 50.9134C77.9713 55.8749 79.2309 60.7691 80.3367 62.5961C75.2598 59.7114 73.8944 51.9711 73.8463 48.4614C71.7694 50.423 71.9233 54.7595 72.2598 56.6826C68.4521 53.3364 69.1348 45.1922 69.9521 41.5384Z" fill="url(#paint39_radial_8075_3037)"/>
<path d="M69.9521 41.5384C68.1059 42.923 67.1633 46.7307 66.9227 48.4614C63.9466 43.4561 66.5533 36.5476 65.9363 32.6151C66.1037 27.523 58.8463 31.0095 56.106 29.7114C54.2282 28.8219 52.7808 25.6823 52.0718 23.5913C51.8996 23.0835 52.242 22.5533 52.7655 22.4373C68.1847 19.0204 60.5166 11.6885 71.5386 11.9711C82.7886 12.2595 88.8463 22.2115 91.0098 25.9615C92.7406 28.9615 96.9232 31.1538 98.7982 31.8749C102.029 35.6826 100.144 39.423 98.7982 40.8172C99.1444 38.6249 97.1156 36.6345 96.0579 35.9134C96.7502 40.5288 90.4809 46.2018 87.2598 48.4614C88.0675 46.4999 87.5963 44.3749 87.2598 43.5576C82.8752 47.0191 83.029 52.9807 83.654 55.5287C80.3079 54.6057 81.0098 52.0672 81.779 50.9134C77.9713 55.8749 79.2309 60.7691 80.3367 62.5961C75.2598 59.7114 73.8944 51.9711 73.8463 48.4614C71.7694 50.423 71.9233 54.7595 72.2598 56.6826C68.4521 53.3364 69.1348 45.1922 69.9521 41.5384Z" fill="url(#paint40_radial_8075_3037)"/>
<path d="M69.9521 41.5384C68.1059 42.923 67.1633 46.7307 66.9227 48.4614C63.9466 43.4561 66.5533 36.5476 65.9363 32.6151C66.1037 27.523 58.8463 31.0095 56.106 29.7114C54.2282 28.8219 52.7808 25.6823 52.0718 23.5913C51.8996 23.0835 52.242 22.5533 52.7655 22.4373C68.1847 19.0204 60.5166 11.6885 71.5386 11.9711C82.7886 12.2595 88.8463 22.2115 91.0098 25.9615C92.7406 28.9615 96.9232 31.1538 98.7982 31.8749C102.029 35.6826 100.144 39.423 98.7982 40.8172C99.1444 38.6249 97.1156 36.6345 96.0579 35.9134C96.7502 40.5288 90.4809 46.2018 87.2598 48.4614C88.0675 46.4999 87.5963 44.3749 87.2598 43.5576C82.8752 47.0191 83.029 52.9807 83.654 55.5287C80.3079 54.6057 81.0098 52.0672 81.779 50.9134C77.9713 55.8749 79.2309 60.7691 80.3367 62.5961C75.2598 59.7114 73.8944 51.9711 73.8463 48.4614C71.7694 50.423 71.9233 54.7595 72.2598 56.6826C68.4521 53.3364 69.1348 45.1922 69.9521 41.5384Z" fill="url(#paint41_radial_8075_3037)"/>
<path d="M79.7594 15.2885C79.9036 11.3943 74.278 6.1299 72.2587 4.61548C70.6722 4.61548 71.0328 12.4039 71.3933 13.4136C71.7539 14.4232 72.2587 15.2164 74.9998 16.1539C77.1069 16.8746 78.9421 16.0818 79.7594 15.2885Z" fill="url(#paint42_radial_8075_3037)"/>
<path d="M76.7303 14.784C77.163 13.9187 75.4322 9.8803 74.7832 8.51011C74.3177 7.52754 72.2594 4.83201 71.3909 5.90056C70.8566 8.15642 71.125 12.6625 71.3933 13.4139C71.8447 14.6777 76.0546 16.1354 76.7303 14.784Z" fill="url(#paint43_linear_8075_3037)"/>
<path d="M70.1632 17.2312C68.4527 16.4708 66.1154 16.1481 64.9466 17.2313C63.3413 18.4011 65.2885 20.6519 68.4527 20.4808C70.9841 20.344 74.5817 23.3315 76.064 24.8424C75.9956 23.4056 74.7812 22.0202 74.1826 21.5071C75.6193 21.7807 77.917 23.0464 78.8862 23.6451C78.202 21.5071 73.2418 18.5998 70.1632 17.2312Z" fill="url(#paint44_linear_8075_3037)"/>
<path d="M65.8449 17.3596C64.5792 17.5648 63.6071 19.4406 63.2793 20.3528C65.9817 21.9265 69.7076 20.866 71.2327 20.139C69.9641 19.127 67.1106 17.1543 65.8449 17.3596Z" fill="url(#paint45_linear_8075_3037)"/>
<path fill-rule="evenodd" clip-rule="evenodd" d="M67.4659 21.1315C67.8129 20.6466 68.0265 19.9854 68.0265 19.2566C68.0265 18.748 67.9225 18.2723 67.7417 17.8665C66.9999 17.5056 66.3148 17.2837 65.8468 17.3596C65.1495 17.4727 64.5413 18.0928 64.0809 18.7795C64.0605 18.9343 64.0498 19.0938 64.0498 19.2566C64.0498 19.8565 64.1945 20.4106 64.4393 20.8583C65.4231 21.1642 66.473 21.2175 67.4659 21.1315Z" fill="#A94E0E"/>
<ellipse cx="65.7065" cy="19.466" rx="0.897964" ry="1.56075" transform="rotate(-10.8926 65.7065 19.466)" fill="black"/>
<path d="M53.2945 26.4642C52.777 25.482 52.3624 24.4488 52.0718 23.5917C51.8996 23.0839 52.242 22.5537 52.7655 22.4377C53.1926 22.3431 53.602 22.2454 53.9946 22.145C55.1413 22.5163 55.9277 23.1183 55.5656 23.6901C55.1482 24.3491 54.1955 25.5837 53.2945 26.4642Z" fill="url(#paint46_radial_8075_3037)" fill-opacity="0.44"/>
<path d="M54.6487 28.5664C54.5445 28.4318 54.4426 28.2901 54.3433 28.1426C55.5795 28.0378 57.4546 27.9013 59.242 27.8364C61.6261 27.7499 63.4611 27.1754 64.0807 26.8989C64.2088 27.2114 64.3626 27.8364 63.9525 27.8364C63.7779 27.8364 63.28 27.8824 62.6233 27.9431C61.3516 28.0606 59.4845 28.2331 58.2166 28.2331C56.9926 28.2331 55.7427 28.3938 54.6487 28.5664Z" fill="black" fill-opacity="0.44"/>
<path d="M65.4652 42.314C68.7865 39.8191 71.8003 36.2853 71.3216 34.3271C70.8823 32.5298 68.607 31.3297 65.537 30.8372C65.8144 31.2621 65.9615 31.839 65.9359 32.6154C66.1527 33.9966 65.9717 35.7449 65.7746 37.6489C65.6201 39.1421 65.4556 40.7311 65.4652 42.314Z" fill="url(#paint47_radial_8075_3037)"/>
<path d="M83.7981 24.8799C84.5914 23.9424 84.4472 22.1395 83.3655 18.3174C89.827 22.9328 90.8654 28.8462 90.577 31.226C89.6395 29.2789 88.7741 29.2068 87.6203 28.702C88.2693 32.6683 86.7068 35.6972 85.4568 36.4183C85.9183 33.7068 84.8657 31.5866 82.7885 36.4183C80.1347 42.5914 75.3126 42.4039 73.6299 41.3943C76.226 37.5866 76.1058 33.1731 75.7212 31.5866C77.5097 33.3174 78.2212 35.5289 77.9568 36.4183C79.7453 31.803 77.2116 27.2837 75.7212 25.601C79.0674 27.5626 80.0962 31.851 80.1924 33.7501C81.4039 30.8655 80.3126 27.5481 79.6155 26.2501C81.4323 27.587 82.134 28.7016 82.3135 29.497C82.654 26.5105 82.2496 23.112 81.4372 21.9119L81.2741 21.7068C81.3301 21.7654 81.3845 21.834 81.4372 21.9119L83.7981 24.8799Z" fill="url(#paint48_linear_8075_3037)"/>
<defs>
<linearGradient id="paint0_linear_8075_3037" x1="204.519" y1="81.6347" x2="210.351" y2="102.184" gradientUnits="userSpaceOnUse">
<stop stop-color="#C0D3D0"/>
<stop offset="1" stop-color="#577F86"/>
</linearGradient>
<linearGradient id="paint1_linear_8075_3037" x1="195.944" y1="100.091" x2="194.887" y2="113.81" gradientUnits="userSpaceOnUse">
<stop stop-color="#9FBBBC"/>
<stop offset="0.82497" stop-color="#6D8C91"/>
<stop offset="0.98" stop-color="#456D73"/>
</linearGradient>
<linearGradient id="paint2_linear_8075_3037" x1="200.769" y1="77.0437" x2="200.769" y2="120.006" gradientUnits="userSpaceOnUse">
<stop stop-color="#88B3BA"/>
<stop offset="1" stop-color="#436B71"/>
</linearGradient>
<radialGradient id="paint3_radial_8075_3037" cx="0" cy="0" r="1" gradientUnits="userSpaceOnUse" gradientTransform="translate(96.3459 107.05) rotate(5.58434) scale(73.6186 20.1989)">
<stop stop-color="#BCD6F2"/>
<stop offset="0.655249" stop-color="#6F7D8D"/>
</radialGradient>
<radialGradient id="paint4_radial_8075_3037" cx="0" cy="0" r="1" gradientUnits="userSpaceOnUse" gradientTransform="translate(171.057 112.974) rotate(95.2999) scale(10.9303 44.634)">
<stop stop-color="#B4BFCB"/>
<stop offset="1" stop-color="#8C96A0" stop-opacity="0"/>
</radialGradient>
<radialGradient id="paint5_radial_8075_3037" cx="0" cy="0" r="1" gradientUnits="userSpaceOnUse" gradientTransform="translate(66.9229 114.214) rotate(48.2526) scale(11.2638 18.4597)">
<stop stop-color="#B4BFCB"/>
<stop offset="1" stop-color="#8C96A0" stop-opacity="0"/>
</radialGradient>
<radialGradient id="paint6_radial_8075_3037" cx="0" cy="0" r="1" gradientUnits="userSpaceOnUse" gradientTransform="translate(142.356 114.214) rotate(90) scale(5.78632 67.6442)">
<stop stop-color="#94B2D0"/>
<stop offset="1" stop-color="#8C96A0" stop-opacity="0"/>
</radialGradient>
<linearGradient id="paint7_linear_8075_3037" x1="73.214" y1="103.382" x2="76.7872" y2="105.147" gradientUnits="userSpaceOnUse">
<stop stop-color="#515A6A"/>
<stop offset="1" stop-color="#515A6A" stop-opacity="0"/>
</linearGradient>
<linearGradient id="paint8_linear_8075_3037" x1="90.886" y1="102.573" x2="94.4087" y2="109.606" gradientUnits="userSpaceOnUse">
<stop stop-color="#515A6A"/>
<stop offset="1" stop-color="#515A6A" stop-opacity="0"/>
</linearGradient>
<linearGradient id="paint9_linear_8075_3037" x1="113.942" y1="105.866" x2="117.259" y2="110.268" gradientUnits="userSpaceOnUse">
<stop stop-color="#515A6A"/>
<stop offset="1" stop-color="#515A6A" stop-opacity="0"/>
</linearGradient>
<linearGradient id="paint10_linear_8075_3037" x1="130.094" y1="108.918" x2="132.449" y2="113.74" gradientUnits="userSpaceOnUse">
<stop stop-color="#515A6A"/>
<stop offset="1" stop-color="#515A6A" stop-opacity="0"/>
</linearGradient>
<radialGradient id="paint11_radial_8075_3037" cx="0" cy="0" r="1" gradientUnits="userSpaceOnUse" gradientTransform="translate(89.9987 86.2505) rotate(-156.801) scale(13.1811 56.9499)">
<stop stop-color="#E1D3CB"/>
<stop offset="1" stop-color="#968074"/>
</radialGradient>
<radialGradient id="paint12_radial_8075_3037" cx="0" cy="0" r="1" gradientUnits="userSpaceOnUse" gradientTransform="translate(89.7102 61.4428) rotate(95.7544) scale(11.508 19.7509)">
<stop stop-color="#38353F" stop-opacity="0.35"/>
<stop offset="1" stop-color="#38353F" stop-opacity="0"/>
</radialGradient>
<radialGradient id="paint13_radial_8075_3037" cx="0" cy="0" r="1" gradientUnits="userSpaceOnUse" gradientTransform="translate(85.361 98.0774) rotate(-99.0962) scale(7.15731 9.36589)">
<stop stop-color="#A28D81"/>
<stop offset="1" stop-color="#A28D81" stop-opacity="0"/>
</radialGradient>
<radialGradient id="paint14_radial_8075_3037" cx="0" cy="0" r="1" gradientUnits="userSpaceOnUse" gradientTransform="translate(132.208 82.3359) rotate(-178.511) scale(10.0241 37.2521)">
<stop stop-color="#E1D3CB"/>
<stop offset="1" stop-color="#968074"/>
</radialGradient>
<radialGradient id="paint15_radial_8075_3037" cx="0" cy="0" r="1" gradientUnits="userSpaceOnUse" gradientTransform="translate(122.02 66.0582) rotate(83.2395) scale(38.262 14.9682)">
<stop stop-color="#38353F" stop-opacity="0.35"/>
<stop offset="1" stop-color="#38353F" stop-opacity="0"/>
</radialGradient>
<radialGradient id="paint16_radial_8075_3037" cx="0" cy="0" r="1" gradientUnits="userSpaceOnUse" gradientTransform="translate(124.039 101.683) rotate(126.634) scale(7.00967 9.59196)">
<stop stop-color="#DACBC3"/>
<stop offset="1" stop-color="#DACBC3" stop-opacity="0"/>
</radialGradient>
<radialGradient id="paint17_radial_8075_3037" cx="0" cy="0" r="1" gradientUnits="userSpaceOnUse" gradientTransform="translate(144.529 84.1771) rotate(-178.757) scale(13.7962 42.7899)">
<stop stop-color="#E1D3CB"/>
<stop offset="1" stop-color="#968074"/>
</radialGradient>
<radialGradient id="paint18_radial_8075_3037" cx="0" cy="0" r="1" gradientUnits="userSpaceOnUse" gradientTransform="translate(144.989 66.8243) rotate(97.7218) scale(30.7964 31.1931)">
<stop stop-color="#D5926B" stop-opacity="0.55"/>
<stop offset="0.731702" stop-color="#C0B3A4" stop-opacity="0"/>
</radialGradient>
<radialGradient id="paint19_radial_8075_3037" cx="0" cy="0" r="1" gradientUnits="userSpaceOnUse" gradientTransform="translate(141.49 104.135) rotate(148.516) scale(5.6103 16.7154)">
<stop stop-color="#DACBC3"/>
<stop offset="1" stop-color="#DACBC3" stop-opacity="0"/>
</radialGradient>
<radialGradient id="paint20_radial_8075_3037" cx="0" cy="0" r="1" gradientUnits="userSpaceOnUse" gradientTransform="translate(161.538 64.6153) rotate(135) scale(22.845 34.0037)">
<stop stop-color="#E1D3CB"/>
<stop offset="1" stop-color="#968074"/>
</radialGradient>
<radialGradient id="paint21_radial_8075_3037" cx="0" cy="0" r="1" gradientUnits="userSpaceOnUse" gradientTransform="translate(157.211 65.4807) rotate(133.069) scale(18.1639 46.7223)">
<stop offset="0.381635" stop-color="#905526" stop-opacity="0"/>
<stop offset="1" stop-color="#946036"/>
</radialGradient>
<radialGradient id="paint22_radial_8075_3037" cx="0" cy="0" r="1" gradientUnits="userSpaceOnUse" gradientTransform="translate(158.942 67.5) rotate(-46.3024) scale(16.3582 29.4154)">
<stop stop-color="#D5926B"/>
<stop offset="0.731702" stop-color="#C0B3A4" stop-opacity="0"/>
</radialGradient>
<radialGradient id="paint23_radial_8075_3037" cx="0" cy="0" r="1" gradientUnits="userSpaceOnUse" gradientTransform="translate(111.057 47.5958) rotate(98.852) scale(21.1746 41.1655)">
<stop stop-color="#FDDECC"/>
<stop offset="1" stop-color="#73594B"/>
</radialGradient>
<radialGradient id="paint24_radial_8075_3037" cx="0" cy="0" r="1" gradientUnits="userSpaceOnUse" gradientTransform="translate(113.653 105.576) rotate(-78.0305) scale(73.7181 135.992)">
<stop offset="0.731702" stop-color="#C0B3A4" stop-opacity="0"/>
<stop offset="1" stop-color="#D5926B"/>
</radialGradient>
<radialGradient id="paint25_radial_8075_3037" cx="0" cy="0" r="1" gradientUnits="userSpaceOnUse" gradientTransform="translate(143.22 29.9751) rotate(124.356) scale(33.2247 76.186)">
<stop stop-color="#FDDECC"/>
<stop offset="1" stop-color="#FDDECC" stop-opacity="0"/>
</radialGradient>
<radialGradient id="paint26_radial_8075_3037" cx="0" cy="0" r="1" gradientUnits="userSpaceOnUse" gradientTransform="translate(100.386 76.1538) rotate(-178.091) scale(8.65865 41.2427)">
<stop stop-color="#E1D3CB"/>
<stop offset="1" stop-color="#968074"/>
</radialGradient>
<radialGradient id="paint27_radial_8075_3037" cx="0" cy="0" r="1" gradientUnits="userSpaceOnUse" gradientTransform="translate(99.9531 47.0192) rotate(113.199) scale(15.378 26.5327)">
<stop offset="0.321875" stop-color="#FDDECC" stop-opacity="0.55"/>
<stop offset="1" stop-color="#DACBC3" stop-opacity="0"/>
</radialGradient>
<radialGradient id="paint28_radial_8075_3037" cx="0" cy="0" r="1" gradientUnits="userSpaceOnUse" gradientTransform="translate(89.8569 94.6153) rotate(56.9705) scale(6.61523 15.3665)">
<stop offset="0.236775" stop-color="#DACBC3"/>
<stop offset="1" stop-color="#DACBC3" stop-opacity="0"/>
</radialGradient>
<radialGradient id="paint29_radial_8075_3037" cx="0" cy="0" r="1" gradientUnits="userSpaceOnUse" gradientTransform="translate(100.674 59.423) rotate(95.0425) scale(29.5374 9.52042)">
<stop stop-color="#D5926B" stop-opacity="0.55"/>
<stop offset="1" stop-color="#C0B3A4" stop-opacity="0"/>
</radialGradient>
<radialGradient id="paint30_radial_8075_3037" cx="0" cy="0" r="1" gradientUnits="userSpaceOnUse" gradientTransform="translate(146.105 80.0484) rotate(141.414) scale(12.0252 37.2971)">
<stop stop-color="#E1D3CB"/>
<stop offset="1" stop-color="#968074"/>
</radialGradient>
<radialGradient id="paint31_radial_8075_3037" cx="0" cy="0" r="1" gradientUnits="userSpaceOnUse" gradientTransform="translate(144.989 66.8243) rotate(97.7218) scale(30.7964 31.1931)">
<stop stop-color="#D5926B" stop-opacity="0.55"/>
<stop offset="0.731702" stop-color="#C0B3A4" stop-opacity="0"/>
</radialGradient>
<radialGradient id="paint32_radial_8075_3037" cx="0" cy="0" r="1" gradientUnits="userSpaceOnUse" gradientTransform="translate(140.048 104.423) rotate(53.9873) scale(5.88732 6.97476)">
<stop stop-color="#DACBC3"/>
<stop offset="1" stop-color="#DACBC3" stop-opacity="0"/>
</radialGradient>
<radialGradient id="paint33_radial_8075_3037" cx="0" cy="0" r="1" gradientUnits="userSpaceOnUse" gradientTransform="translate(135.144 56.5388) rotate(103.459) scale(17.3515 20.5565)">
<stop offset="0.321875" stop-color="#FDDECC" stop-opacity="0.55"/>
<stop offset="1" stop-color="#DACBC3" stop-opacity="0"/>
</radialGradient>
<radialGradient id="paint34_radial_8075_3037" cx="0" cy="0" r="1" gradientUnits="userSpaceOnUse" gradientTransform="translate(70.8425 6.83021) rotate(101.182) scale(5.3782 6.54476)">
<stop stop-color="#EACCBA"/>
<stop offset="1" stop-color="#C0A48E"/>
</radialGradient>
<linearGradient id="paint35_linear_8075_3037" x1="67.7861" y1="6.88037" x2="67.7861" y2="13.9465" gradientUnits="userSpaceOnUse">
<stop stop-color="#514837"/>
<stop offset="1" stop-color="#A58766" stop-opacity="0.55"/>
</linearGradient>
<radialGradient id="paint36_radial_8075_3037" cx="0" cy="0" r="1" gradientUnits="userSpaceOnUse" gradientTransform="translate(80.2097 17.1503) rotate(101.619) scale(32.0075 40.3896)">
<stop stop-color="#ADA08E"/>
<stop offset="1" stop-color="#E1D3CB"/>
</radialGradient>
<radialGradient id="paint37_radial_8075_3037" cx="0" cy="0" r="1" gradientUnits="userSpaceOnUse" gradientTransform="translate(66.6347 34.9037) rotate(87.6141) scale(10.3936 21.2345)">
<stop stop-color="#7C6256"/>
<stop offset="1" stop-color="#7C6256" stop-opacity="0"/>
</radialGradient>
<radialGradient id="paint38_radial_8075_3037" cx="0" cy="0" r="1" gradientUnits="userSpaceOnUse" gradientTransform="translate(40.9617 62.596) rotate(-45.5816) scale(70.8899 163.711)">
<stop offset="0.588054" stop-color="#C0B3A4" stop-opacity="0"/>
<stop offset="1" stop-color="#D5926B"/>
</radialGradient>
<radialGradient id="paint39_radial_8075_3037" cx="0" cy="0" r="1" gradientUnits="userSpaceOnUse" gradientTransform="translate(69.2309 57.6921) rotate(-45) scale(32.6357 116.265)">
<stop stop-color="#C9A48E"/>
<stop offset="0.509375" stop-color="#C9A48E" stop-opacity="0"/>
</radialGradient>
<radialGradient id="paint40_radial_8075_3037" cx="0" cy="0" r="1" gradientUnits="userSpaceOnUse" gradientTransform="translate(56.3943 19.9037) rotate(52.125) scale(6.57793 15.4455)">
<stop stop-color="#FDDECC"/>
<stop offset="1" stop-color="#FDDECC" stop-opacity="0"/>
</radialGradient>
<radialGradient id="paint41_radial_8075_3037" cx="0" cy="0" r="1" gradientUnits="userSpaceOnUse" gradientTransform="translate(90.8655 13.846) rotate(130.4) scale(17.803 41.8028)">
<stop stop-color="#FDDECC"/>
<stop offset="1" stop-color="#FDDECC" stop-opacity="0"/>
</radialGradient>
<radialGradient id="paint42_radial_8075_3037" cx="0" cy="0" r="1" gradientUnits="userSpaceOnUse" gradientTransform="translate(76.1206 5.82651) rotate(98.9459) scale(7.40972 7.28088)">
<stop stop-color="#EACCBA"/>
<stop offset="1" stop-color="#C0A48E"/>
</radialGradient>
<linearGradient id="paint43_linear_8075_3037" x1="73.9409" y1="5.6543" x2="73.9409" y2="15.3245" gradientUnits="userSpaceOnUse">
<stop stop-color="#514837"/>
<stop offset="1" stop-color="#A58766" stop-opacity="0.55"/>
</linearGradient>
<linearGradient id="paint44_linear_8075_3037" x1="63.611" y1="17.382" x2="65.9255" y2="26.4061" gradientUnits="userSpaceOnUse">
<stop/>
<stop offset="1" stop-color="#666666" stop-opacity="0"/>
</linearGradient>
<linearGradient id="paint45_linear_8075_3037" x1="62.1675" y1="19.8395" x2="73.1569" y2="20.0961" gradientUnits="userSpaceOnUse">
<stop offset="0.29" stop-color="white"/>
<stop offset="1" stop-color="#A6AFD2"/>
</linearGradient>
<radialGradient id="paint46_radial_8075_3037" cx="0" cy="0" r="1" gradientUnits="userSpaceOnUse" gradientTransform="translate(53.077 23.0772) rotate(56.0325) scale(2.06515 1.73456)">
<stop stop-color="#A39797"/>
<stop offset="1" stop-color="#474141"/>
</radialGradient>
<radialGradient id="paint47_radial_8075_3037" cx="0" cy="0" r="1" gradientUnits="userSpaceOnUse" gradientTransform="translate(63.4073 32.4161) rotate(42.1626) scale(8.75608)">
<stop stop-color="#4B2904" stop-opacity="0.55"/>
<stop offset="1" stop-color="#593004" stop-opacity="0"/>
</radialGradient>
<linearGradient id="paint48_linear_8075_3037" x1="73.8462" y1="23.077" x2="87.6924" y2="36.9231" gradientUnits="userSpaceOnUse">
<stop stop-color="#4B2904" stop-opacity="0.55"/>
<stop offset="0.826138" stop-color="#593004" stop-opacity="0"/>
</linearGradient>
</defs>
</svg>
