<svg viewBox="0 0 28 28" xmlns="http://www.w3.org/2000/svg"><circle cx="14" cy="14" fill="#605E5C" r="13.5"/><path d="m11.626 9.024 4.976 4.976-4.976 4.976c-.235.235-.235.614 0 .848.235.235.614.235.848 0l5.4-5.4c.112-.111.176-.266.176-.424s-.064-.313-.176-.424l-5.4-5.4c-.235-.235-.614-.235-.848 0s-.235.614 0 .848z" fill=" #faf9f8"/><path d="m14 1c7.168 0 13 5.832 13 13s-5.832 13-13 13-13-5.832-13-13 5.832-13 13-13m0-1c-7.732 0-14 6.268-14 14s6.268 14 14 14 14-6.268 14-14-6.268-14-14-14z" fill="#605E5C"/></svg>