<svg viewBox="0 0 10 14" fill="none" xmlns="http://www.w3.org/2000/svg">
<path d="M2.83366 0C2.55752 0 2.33366 0.223858 2.33366 0.5C2.33366 0.776142 2.55752 1 2.83366 1H3.00033V2H2C0.895429 2 0 2.89543 0 4V11C0 12.1046 0.895431 13 2 13V13.5C2 13.7761 2.22386 14 2.5 14C2.77614 14 3 13.7761 3 13.5V13H7V13.5C7 13.7761 7.22386 14 7.5 14C7.77614 14 8 13.7761 8 13.5V13C9.10457 13 10 12.1046 10 11V4C10 2.89543 9.10457 2 8 2H7.00033V1H7.16699C7.44313 1 7.66699 0.776142 7.66699 0.5C7.66699 0.223858 7.44313 0 7.16699 0H2.83366ZM4.00033 2V1H6.00033V2H4.00033ZM2 5.5C2 5.22386 2.22386 5 2.5 5H7.5C7.77614 5 8 5.22386 8 5.5C8 5.77614 7.77614 6 7.5 6H2.5C2.22386 6 2 5.77614 2 5.5Z" fill="black" fill-opacity="0.83"/>
</svg>