<svg viewBox="0 0 240 120" fill="none" xmlns="http://www.w3.org/2000/svg">
<path d="M107.115 61.7592C112.528 62.3673 108.391 58.9653 105.177 56.5462C102.046 54.1893 101.208 50.259 100.002 46.8861C95.9235 48.5556 88.8657 47.6132 85.8467 46.9333C91.5347 55.7272 101.702 61.1511 107.115 61.7592Z" fill="url(#paint0_linear_8078_27701)"/>
<path d="M93.5561 49.6975C76.5311 49.0673 68.2472 33.1485 65.1068 30.2619C57.8705 29.4679 53.7714 23.6623 54.8721 22.2328C55.9727 20.8033 59.5086 21.2566 60.5781 20.9708C62.1546 20.0801 63.5806 19.6481 66.6599 20.3393C73.7164 21.9232 75.4103 26.0681 77.0843 27.2077C79.1426 28.6089 85.88 27.5115 91.7479 28.007C96.3692 28.3972 105.745 29.2407 109.718 31.3925C114.979 32.2162 114.488 29.6964 122.785 27.4512C129.729 25.572 136.187 13.7434 137.532 12.038C138.877 10.3326 138.864 15.0008 138.436 16.9694C138.008 18.9381 141.873 20.2616 140.324 20.977C138.775 21.6925 132.893 24.8428 129.895 32.5161C126.897 40.1894 110.581 50.3276 93.5561 49.6975Z" fill="url(#paint1_radial_8078_27701)"/>
<path d="M93.5561 49.6975C76.5311 49.0673 68.2472 33.1485 65.1068 30.2619C57.8705 29.4679 53.7714 23.6623 54.8721 22.2328C55.9727 20.8033 59.5086 21.2566 60.5781 20.9708C62.1546 20.0801 63.5806 19.6481 66.6599 20.3393C73.7164 21.9232 75.4103 26.0681 77.0843 27.2077C79.1426 28.6089 85.88 27.5115 91.7479 28.007C96.3692 28.3972 105.745 29.2407 109.718 31.3925C114.979 32.2162 114.488 29.6964 122.785 27.4512C129.729 25.572 136.187 13.7434 137.532 12.038C138.877 10.3326 138.864 15.0008 138.436 16.9694C138.008 18.9381 141.873 20.2616 140.324 20.977C138.775 21.6925 132.893 24.8428 129.895 32.5161C126.897 40.1894 110.581 50.3276 93.5561 49.6975Z" fill="url(#paint2_radial_8078_27701)"/>
<path d="M93.5561 49.6975C76.5311 49.0673 68.2472 33.1485 65.1068 30.2619C57.8705 29.4679 53.7714 23.6623 54.8721 22.2328C55.9727 20.8033 59.5086 21.2566 60.5781 20.9708C62.1546 20.0801 63.5806 19.6481 66.6599 20.3393C73.7164 21.9232 75.4103 26.0681 77.0843 27.2077C79.1426 28.6089 85.88 27.5115 91.7479 28.007C96.3692 28.3972 105.745 29.2407 109.718 31.3925C114.979 32.2162 114.488 29.6964 122.785 27.4512C129.729 25.572 136.187 13.7434 137.532 12.038C138.877 10.3326 138.864 15.0008 138.436 16.9694C138.008 18.9381 141.873 20.2616 140.324 20.977C138.775 21.6925 132.893 24.8428 129.895 32.5161C126.897 40.1894 110.581 50.3276 93.5561 49.6975Z" fill="url(#paint3_radial_8078_27701)"/>
<path d="M108.082 37.2426C106.066 37.8848 103.563 36.5349 102.563 35.7797C101.841 36.8241 99.9609 38.9406 98.2193 39.0511C96.0422 39.1892 84.0964 32.888 87.3549 31.9613C90.6134 31.0346 101.251 28.8684 110.138 28.7033C119.025 28.5382 121.089 31.8222 119.14 32.3881C117.886 32.7526 114.362 33.0769 114.585 33.95C114.763 34.6484 111.7 35.2944 110.146 35.5301C110.299 35.8334 110.099 36.6004 108.082 37.2426Z" fill="url(#paint4_linear_8078_27701)"/>
<path d="M108.082 37.2426C106.066 37.8848 103.563 36.5349 102.563 35.7797C101.841 36.8241 99.9609 38.9406 98.2193 39.0511C96.0422 39.1892 84.0964 32.888 87.3549 31.9613C90.6134 31.0346 101.251 28.8684 110.138 28.7033C119.025 28.5382 121.089 31.8222 119.14 32.3881C117.886 32.7526 114.362 33.0769 114.585 33.95C114.763 34.6484 111.7 35.2944 110.146 35.5301C110.299 35.8334 110.099 36.6004 108.082 37.2426Z" fill="url(#paint5_radial_8078_27701)"/>
<ellipse cx="64.1661" cy="23.0152" rx="1.37915" ry="1.13729" transform="rotate(8.89937 64.1661 23.0152)" fill="url(#paint6_radial_8078_27701)"/>
<path fill-rule="evenodd" clip-rule="evenodd" d="M171.538 51.6616C171.995 51.0487 172.863 50.9226 173.476 51.38C176.667 53.7617 181.585 58.1891 186.079 63.8016C190.565 69.4033 194.714 76.2914 196.22 83.5905C196.724 86.0322 197.103 88.4108 197.474 90.7403C198.901 99.7049 200.213 107.942 208.088 116.242C208.614 116.797 208.591 117.673 208.036 118.199C207.481 118.726 206.605 118.703 206.079 118.148C197.561 109.17 196.106 99.94 194.675 90.866C194.32 88.6157 193.967 86.3751 193.508 84.1502C192.126 77.4531 188.268 70.965 183.918 65.5325C179.576 60.1109 174.83 55.8461 171.819 53.5994C171.206 53.142 171.08 52.2744 171.538 51.6616Z" fill="#789382"/>
<path fill-rule="evenodd" clip-rule="evenodd" d="M171.538 51.6616C171.995 51.0487 172.863 50.9226 173.476 51.38C176.667 53.7617 181.585 58.1891 186.079 63.8016C190.565 69.4033 194.714 76.2914 196.22 83.5905C196.724 86.0322 197.103 88.4108 197.474 90.7403C198.901 99.7049 200.213 107.942 208.088 116.242C208.614 116.797 208.591 117.673 208.036 118.199C207.481 118.726 206.605 118.703 206.079 118.148C197.561 109.17 196.106 99.94 194.675 90.866C194.32 88.6157 193.967 86.3751 193.508 84.1502C192.126 77.4531 188.268 70.965 183.918 65.5325C179.576 60.1109 174.83 55.8461 171.819 53.5994C171.206 53.142 171.08 52.2744 171.538 51.6616Z" fill="url(#paint7_linear_8078_27701)"/>
<path d="M162.692 41.3839C182.077 45.1916 182.884 53.932 180.865 57.8262C171.49 63.4512 160.529 54.3647 158.942 51.0474C157.808 48.6767 152.6 46.2829 149.343 45.0794C148.953 44.9357 148.924 44.3885 149.3 44.2132C154.546 41.7678 158.494 40.5592 162.692 41.3839Z" fill="#A77F2B"/>
<path d="M162.692 41.3839C182.077 45.1916 182.884 53.932 180.865 57.8262C171.49 63.4512 160.529 54.3647 158.942 51.0474C157.808 48.6767 152.6 46.2829 149.343 45.0794C148.953 44.9357 148.924 44.3885 149.3 44.2132C154.546 41.7678 158.494 40.5592 162.692 41.3839Z" fill="url(#paint8_linear_8078_27701)" fill-opacity="0.55"/>
<path d="M162.692 41.3839C182.077 45.1916 182.884 53.932 180.865 57.8262C171.49 63.4512 160.529 54.3647 158.942 51.0474C157.808 48.6767 152.6 46.2829 149.343 45.0794C148.953 44.9357 148.924 44.3885 149.3 44.2132C154.546 41.7678 158.494 40.5592 162.692 41.3839Z" fill="url(#paint9_radial_8078_27701)"/>
<path d="M159.951 68.9322C153.172 49.3168 173.797 50.9034 181.441 59.4129C187.066 67.7783 178.846 61.4322 171.49 61.4322C165.606 61.4322 161.827 66.3361 159.951 68.9322Z" fill="#A77F2B"/>
<path d="M159.951 68.9322C153.172 49.3168 173.797 50.9034 181.441 59.4129C187.066 67.7783 178.846 61.4322 171.49 61.4322C165.606 61.4322 161.827 66.3361 159.951 68.9322Z" fill="url(#paint10_linear_8078_27701)" fill-opacity="0.55"/>
<path d="M159.951 68.9322C153.172 49.3168 173.797 50.9034 181.441 59.4129C187.066 67.7783 178.846 61.4322 171.49 61.4322C165.606 61.4322 161.827 66.3361 159.951 68.9322Z" fill="url(#paint11_radial_8078_27701)"/>
<path d="M204.316 91.5049C195.114 98.8598 198.011 107.571 200.915 110.743L202.345 112.478C202.512 112.681 203.025 112.438 203.04 112.175C203.324 107.265 214.048 101.863 219.129 92.3113C224.706 81.8273 204.947 73.1173 205.361 73.924C205.844 74.8649 215.818 82.3112 204.316 91.5049Z" fill="#A77F2B"/>
<path d="M204.316 91.5049C195.114 98.8598 198.011 107.571 200.915 110.743L202.345 112.478C202.512 112.681 203.025 112.438 203.04 112.175C203.324 107.265 214.048 101.863 219.129 92.3113C224.706 81.8273 204.947 73.1173 205.361 73.924C205.844 74.8649 215.818 82.3112 204.316 91.5049Z" fill="url(#paint12_linear_8078_27701)"/>
<path d="M204.316 91.5049C195.114 98.8598 198.011 107.571 200.915 110.743L202.345 112.478C202.512 112.681 203.025 112.438 203.04 112.175C203.324 107.265 214.048 101.863 219.129 92.3113C224.706 81.8273 204.947 73.1173 205.361 73.924C205.844 74.8649 215.818 82.3112 204.316 91.5049Z" fill="url(#paint13_linear_8078_27701)" fill-opacity="0.55"/>
<path d="M204.316 91.5049C195.114 98.8598 198.011 107.571 200.915 110.743L202.345 112.478C202.512 112.681 203.025 112.438 203.04 112.175C203.324 107.265 214.048 101.863 219.129 92.3113C224.706 81.8273 204.947 73.1173 205.361 73.924C205.844 74.8649 215.818 82.3112 204.316 91.5049Z" fill="url(#paint14_radial_8078_27701)"/>
<path d="M194.38 57.7674C191.784 63.3924 188.034 69.4501 189.621 72.3347C189.621 73.0558 190.804 74.3539 195.534 73.777C201.448 73.0558 211.832 69.0174 211.832 53.8731C211.832 46.2275 198.13 38.152 191.784 35.8443C186.707 33.9982 180.342 35.0751 177.794 35.8443C177.794 35.8443 177.65 38.4404 182.698 42.6231C187.746 46.8058 196.977 52.1424 194.38 57.7674Z" fill="#A77F2B"/>
<path d="M194.38 57.7674C191.784 63.3924 188.034 69.4501 189.621 72.3347C189.621 73.0558 190.804 74.3539 195.534 73.777C201.448 73.0558 211.832 69.0174 211.832 53.8731C211.832 46.2275 198.13 38.152 191.784 35.8443C186.707 33.9982 180.342 35.0751 177.794 35.8443C177.794 35.8443 177.65 38.4404 182.698 42.6231C187.746 46.8058 196.977 52.1424 194.38 57.7674Z" fill="url(#paint15_linear_8078_27701)"/>
<path d="M194.38 57.7674C191.784 63.3924 188.034 69.4501 189.621 72.3347C189.621 73.0558 190.804 74.3539 195.534 73.777C201.448 73.0558 211.832 69.0174 211.832 53.8731C211.832 46.2275 198.13 38.152 191.784 35.8443C186.707 33.9982 180.342 35.0751 177.794 35.8443C177.794 35.8443 177.65 38.4404 182.698 42.6231C187.746 46.8058 196.977 52.1424 194.38 57.7674Z" fill="url(#paint16_linear_8078_27701)" fill-opacity="0.55"/>
<path d="M194.38 57.7674C191.784 63.3924 188.034 69.4501 189.621 72.3347C189.621 73.0558 190.804 74.3539 195.534 73.777C201.448 73.0558 211.832 69.0174 211.832 53.8731C211.832 46.2275 198.13 38.152 191.784 35.8443C186.707 33.9982 180.342 35.0751 177.794 35.8443C177.794 35.8443 177.65 38.4404 182.698 42.6231C187.746 46.8058 196.977 52.1424 194.38 57.7674Z" fill="url(#paint17_radial_8078_27701)"/>
<path d="M172.457 19.8411C171.643 11.2345 175.823 14.0931 180.731 12.8504C184.32 12.44 186.868 11.2972 189.662 12.0585C192.457 12.8198 195.675 27.6717 197.113 37.7114C198.263 45.7432 188.563 57.7867 183.569 62.8045C179.315 58.1696 171.016 47.7208 171.854 43.0043C172.902 37.1087 173.27 28.4477 172.457 19.8411Z" fill="#A77F2B"/>
<path d="M172.457 19.8411C171.643 11.2345 175.823 14.0931 180.731 12.8504C184.32 12.44 186.868 11.2972 189.662 12.0585C192.457 12.8198 195.675 27.6717 197.113 37.7114C198.263 45.7432 188.563 57.7867 183.569 62.8045C179.315 58.1696 171.016 47.7208 171.854 43.0043C172.902 37.1087 173.27 28.4477 172.457 19.8411Z" fill="url(#paint18_linear_8078_27701)"/>
<path d="M172.457 19.8411C171.643 11.2345 175.823 14.0931 180.731 12.8504C184.32 12.44 186.868 11.2972 189.662 12.0585C192.457 12.8198 195.675 27.6717 197.113 37.7114C198.263 45.7432 188.563 57.7867 183.569 62.8045C179.315 58.1696 171.016 47.7208 171.854 43.0043C172.902 37.1087 173.27 28.4477 172.457 19.8411Z" fill="url(#paint19_linear_8078_27701)" fill-opacity="0.55"/>
<path d="M172.457 19.8411C171.643 11.2345 175.823 14.0931 180.731 12.8504C184.32 12.44 186.868 11.2972 189.662 12.0585C192.457 12.8198 195.675 27.6717 197.113 37.7114C198.263 45.7432 188.563 57.7867 183.569 62.8045C179.315 58.1696 171.016 47.7208 171.854 43.0043C172.902 37.1087 173.27 28.4477 172.457 19.8411Z" fill="url(#paint20_radial_8078_27701)"/>
<path d="M154.118 66.0922C177.248 59.9919 185.128 65.5838 187.161 69.1423C188.94 77.5302 178.011 83.6305 160.727 86.4265C146.899 88.6633 127.683 85.4945 119.804 83.6305C123.532 79.8178 135.614 70.9724 154.118 66.0922Z" fill="#A77F2B"/>
<path d="M154.118 66.0922C177.248 59.9919 185.128 65.5838 187.161 69.1423C188.94 77.5302 178.011 83.6305 160.727 86.4265C146.899 88.6633 127.683 85.4945 119.804 83.6305C123.532 79.8178 135.614 70.9724 154.118 66.0922Z" fill="url(#paint21_linear_8078_27701)"/>
<path d="M154.118 66.0922C177.248 59.9919 185.128 65.5838 187.161 69.1423C188.94 77.5302 178.011 83.6305 160.727 86.4265C146.899 88.6633 127.683 85.4945 119.804 83.6305C123.532 79.8178 135.614 70.9724 154.118 66.0922Z" fill="url(#paint22_radial_8078_27701)"/>
<path d="M154.118 66.0922C177.248 59.9919 185.128 65.5838 187.161 69.1423C188.94 77.5302 178.011 83.6305 160.727 86.4265C146.899 88.6633 127.683 85.4945 119.804 83.6305C123.532 79.8178 135.614 70.9724 154.118 66.0922Z" fill="url(#paint23_linear_8078_27701)" fill-opacity="0.55"/>
<path d="M36.0961 28.4021C25.1345 36.1906 26.2884 45.5656 29.6057 48.7386C39.0879 48.7386 36.1194 40.7244 34.6707 36.8131L34.6538 36.7675C33.5 33.6521 39.9903 30.4213 36.0961 28.4021Z" fill="#A77F2B"/>
<path d="M36.0961 28.4021C25.1345 36.1906 26.2884 45.5656 29.6057 48.7386C39.0879 48.7386 36.1194 40.7244 34.6707 36.8131L34.6538 36.7675C33.5 33.6521 39.9903 30.4213 36.0961 28.4021Z" fill="url(#paint24_linear_8078_27701)" fill-opacity="0.55"/>
<path d="M36.0961 28.4021C25.1345 36.1906 26.2884 45.5656 29.6057 48.7386C39.0879 48.7386 36.1194 40.7244 34.6707 36.8131L34.6538 36.7675C33.5 33.6521 39.9903 30.4213 36.0961 28.4021Z" fill="url(#paint25_radial_8078_27701)"/>
<path d="M33.894 52.2003C33.6632 53.2388 37.0677 56.7196 38.2216 57.3927C40.2404 53.21 45.2886 53.9311 49.0386 52.2003C52.0386 50.8157 57.5485 41.96 55.8175 40.085C54.3754 40.085 51.981 45.3638 45.2886 46.2869C36.9233 47.4407 34.1825 50.9023 33.894 52.2003Z" fill="#A77F2B"/>
<path d="M33.894 52.2003C33.6632 53.2388 37.0677 56.7196 38.2216 57.3927C40.2404 53.21 45.2886 53.9311 49.0386 52.2003C52.0386 50.8157 57.5485 41.96 55.8175 40.085C54.3754 40.085 51.981 45.3638 45.2886 46.2869C36.9233 47.4407 34.1825 50.9023 33.894 52.2003Z" fill="url(#paint26_linear_8078_27701)" fill-opacity="0.55"/>
<path d="M33.894 52.2003C33.6632 53.2388 37.0677 56.7196 38.2216 57.3927C40.2404 53.21 45.2886 53.9311 49.0386 52.2003C52.0386 50.8157 57.5485 41.96 55.8175 40.085C54.3754 40.085 51.981 45.3638 45.2886 46.2869C36.9233 47.4407 34.1825 50.9023 33.894 52.2003Z" fill="url(#paint27_radial_8078_27701)"/>
<path d="M50.4813 53.6422C45.4044 56.9884 46.2507 62.9023 46.5872 64.7292C48.3179 66.4599 50.4813 69.0749 51.9238 66.4599C50.9143 59.9695 57.4044 59.3926 59.1352 56.7965C60.8659 54.2003 60.7217 48.7196 61.0102 46.4119C61.2409 44.5657 59.6039 43.4257 58.1255 46.4119C56.6472 49.3982 55.5582 50.2961 50.4813 53.6422Z" fill="#A77F2B"/>
<path d="M50.4813 53.6422C45.4044 56.9884 46.2507 62.9023 46.5872 64.7292C48.3179 66.4599 50.4813 69.0749 51.9238 66.4599C50.9143 59.9695 57.4044 59.3926 59.1352 56.7965C60.8659 54.2003 60.7217 48.7196 61.0102 46.4119C61.2409 44.5657 59.6039 43.4257 58.1255 46.4119C56.6472 49.3982 55.5582 50.2961 50.4813 53.6422Z" fill="url(#paint28_linear_8078_27701)" fill-opacity="0.55"/>
<path d="M50.4813 53.6422C45.4044 56.9884 46.2507 62.9023 46.5872 64.7292C48.3179 66.4599 50.4813 69.0749 51.9238 66.4599C50.9143 59.9695 57.4044 59.3926 59.1352 56.7965C60.8659 54.2003 60.7217 48.7196 61.0102 46.4119C61.2409 44.5657 59.6039 43.4257 58.1255 46.4119C56.6472 49.3982 55.5582 50.2961 50.4813 53.6422Z" fill="url(#paint29_linear_8078_27701)"/>
<path d="M50.4813 53.6422C45.4044 56.9884 46.2507 62.9023 46.5872 64.7292C48.3179 66.4599 50.4813 69.0749 51.9238 66.4599C50.9143 59.9695 57.4044 59.3926 59.1352 56.7965C60.8659 54.2003 60.7217 48.7196 61.0102 46.4119C61.2409 44.5657 59.6039 43.4257 58.1255 46.4119C56.6472 49.3982 55.5582 50.2961 50.4813 53.6422Z" fill="url(#paint30_radial_8078_27701)"/>
<path d="M75.5777 61.1423C71.361 64.9536 66.6354 70.3731 70.3854 73.402C71.2028 73.9308 73.5298 74.8155 76.2989 74.1231C79.7602 73.2578 99.376 60.277 84.9529 53.2097C75.5777 48.6158 64.3279 53.2097 63.6068 53.2097C62.8857 53.2096 83.0777 54.3635 75.5777 61.1423Z" fill="#A77F2B"/>
<path d="M75.5777 61.1423C71.361 64.9536 66.6354 70.3731 70.3854 73.402C71.2028 73.9308 73.5298 74.8155 76.2989 74.1231C79.7602 73.2578 99.376 60.277 84.9529 53.2097C75.5777 48.6158 64.3279 53.2097 63.6068 53.2097C62.8857 53.2096 83.0777 54.3635 75.5777 61.1423Z" fill="url(#paint31_linear_8078_27701)"/>
<path d="M75.5777 61.1423C71.361 64.9536 66.6354 70.3731 70.3854 73.402C71.2028 73.9308 73.5298 74.8155 76.2989 74.1231C79.7602 73.2578 99.376 60.277 84.9529 53.2097C75.5777 48.6158 64.3279 53.2097 63.6068 53.2097C62.8857 53.2096 83.0777 54.3635 75.5777 61.1423Z" fill="url(#paint32_linear_8078_27701)" fill-opacity="0.55"/>
<path d="M75.5777 61.1423C71.361 64.9536 66.6354 70.3731 70.3854 73.402C71.2028 73.9308 73.5298 74.8155 76.2989 74.1231C79.7602 73.2578 99.376 60.277 84.9529 53.2097C75.5777 48.6158 64.3279 53.2097 63.6068 53.2097C62.8857 53.2096 83.0777 54.3635 75.5777 61.1423Z" fill="url(#paint33_radial_8078_27701)"/>
<path d="M116.538 53.9316C112.846 55.8931 121.298 64.4604 126.49 64.4604C135.432 62.7297 133.269 55.5183 132.404 51.7682C131.71 48.7639 121.154 51.4797 116.538 53.9316Z" fill="#A77F2B"/>
<path d="M116.538 53.9316C112.846 55.8931 121.298 64.4604 126.49 64.4604C135.432 62.7297 133.269 55.5183 132.404 51.7682C131.71 48.7639 121.154 51.4797 116.538 53.9316Z" fill="url(#paint34_linear_8078_27701)"/>
<path d="M116.538 53.9316C112.846 55.8931 121.298 64.4604 126.49 64.4604C135.432 62.7297 133.269 55.5183 132.404 51.7682C131.71 48.7639 121.154 51.4797 116.538 53.9316Z" fill="url(#paint35_linear_8078_27701)" fill-opacity="0.55"/>
<path d="M116.538 53.9316C112.846 55.8931 121.298 64.4604 126.49 64.4604C135.432 62.7297 133.269 55.5183 132.404 51.7682C131.71 48.7639 121.154 51.4797 116.538 53.9316Z" fill="url(#paint36_radial_8078_27701)"/>
<path d="M96.9242 61.8641C95.5396 64.5179 101.251 67.0083 104.28 67.9218C106.107 67.9218 110.309 67.6622 112.501 66.6237C114.694 65.5853 117.261 62.1526 118.271 60.566C116.732 56.6237 112.876 48.8833 109.761 49.4602C105.867 50.1814 98.655 58.5468 96.9242 61.8641Z" fill="#A77F2B"/>
<path d="M96.9242 61.8641C95.5396 64.5179 101.251 67.0083 104.28 67.9218C106.107 67.9218 110.309 67.6622 112.501 66.6237C114.694 65.5853 117.261 62.1526 118.271 60.566C116.732 56.6237 112.876 48.8833 109.761 49.4602C105.867 50.1814 98.655 58.5468 96.9242 61.8641Z" fill="url(#paint37_linear_8078_27701)"/>
<path d="M96.9242 61.8641C95.5396 64.5179 101.251 67.0083 104.28 67.9218C106.107 67.9218 110.309 67.6622 112.501 66.6237C114.694 65.5853 117.261 62.1526 118.271 60.566C116.732 56.6237 112.876 48.8833 109.761 49.4602C105.867 50.1814 98.655 58.5468 96.9242 61.8641Z" fill="url(#paint38_linear_8078_27701)" fill-opacity="0.55"/>
<path d="M96.9242 61.8641C95.5396 64.5179 101.251 67.0083 104.28 67.9218C106.107 67.9218 110.309 67.6622 112.501 66.6237C114.694 65.5853 117.261 62.1526 118.271 60.566C116.732 56.6237 112.876 48.8833 109.761 49.4602C105.867 50.1814 98.655 58.5468 96.9242 61.8641Z" fill="url(#paint39_radial_8078_27701)"/>
<path fill-rule="evenodd" clip-rule="evenodd" d="M30.4203 47.0751C31.1102 46.7451 31.9369 47.0369 32.2668 47.7267C38.1568 60.0413 59.3364 79.161 89.7828 70.3217C117.433 62.2943 135.19 62.9221 147.864 67.6654C159.711 72.0995 166.923 80.0787 173.454 87.3033C173.899 87.7965 174.342 88.2861 174.783 88.7708C178.373 92.7205 181.455 96.8212 184.265 100.56C185.784 102.581 187.224 104.497 188.622 106.226C192.701 111.272 196.507 114.866 201.325 116.134C202.065 116.328 202.506 117.086 202.312 117.825C202.117 118.565 201.36 119.006 200.62 118.812C194.886 117.303 190.601 113.079 186.468 107.967C184.948 106.087 183.457 104.1 181.914 102.045C179.166 98.3845 176.256 94.5083 172.733 90.6335C172.309 90.1663 171.884 89.6971 171.459 89.2268C164.884 81.96 158.088 74.4492 146.893 70.2589C134.99 65.8041 117.896 65.0433 90.5549 72.9811C58.5087 82.2848 36.0985 62.1559 29.7687 48.9216C29.4387 48.2317 29.7305 47.405 30.4203 47.0751Z" fill="#789382"/>
<path fill-rule="evenodd" clip-rule="evenodd" d="M30.4203 47.0751C31.1102 46.7451 31.9369 47.0369 32.2668 47.7267C38.1568 60.0413 59.3364 79.161 89.7828 70.3217C117.433 62.2943 135.19 62.9221 147.864 67.6654C159.711 72.0995 166.923 80.0787 173.454 87.3033C173.899 87.7965 174.342 88.2861 174.783 88.7708C178.373 92.7205 181.455 96.8212 184.265 100.56C185.784 102.581 187.224 104.497 188.622 106.226C192.701 111.272 196.507 114.866 201.325 116.134C202.065 116.328 202.506 117.086 202.312 117.825C202.117 118.565 201.36 119.006 200.62 118.812C194.886 117.303 190.601 113.079 186.468 107.967C184.948 106.087 183.457 104.1 181.914 102.045C179.166 98.3845 176.256 94.5083 172.733 90.6335C172.309 90.1663 171.884 89.6971 171.459 89.2268C164.884 81.96 158.088 74.4492 146.893 70.2589C134.99 65.8041 117.896 65.0433 90.5549 72.9811C58.5087 82.2848 36.0985 62.1559 29.7687 48.9216C29.4387 48.2317 29.7305 47.405 30.4203 47.0751Z" fill="url(#paint40_linear_8078_27701)"/>
<path d="M150.433 66.3749C148.766 63.5978 140.435 59.4322 129.049 59.71C124.051 63.3201 121.551 68.3188 115.997 74.706C110.443 81.0933 112.109 96.9224 112.387 103.865C112.665 110.808 100.446 119.139 104.333 118.583C108.221 118.028 110.721 119.417 123.495 108.864C136.27 98.311 152.099 69.1519 150.433 66.3749Z" fill="#A77F2B"/>
<path d="M150.433 66.3749C148.766 63.5978 140.435 59.4322 129.049 59.71C124.051 63.3201 121.551 68.3188 115.997 74.706C110.443 81.0933 112.109 96.9224 112.387 103.865C112.665 110.808 100.446 119.139 104.333 118.583C108.221 118.028 110.721 119.417 123.495 108.864C136.27 98.311 152.099 69.1519 150.433 66.3749Z" fill="url(#paint41_linear_8078_27701)"/>
<path d="M150.433 66.3749C148.766 63.5978 140.435 59.4322 129.049 59.71C124.051 63.3201 121.551 68.3188 115.997 74.706C110.443 81.0933 112.109 96.9224 112.387 103.865C112.665 110.808 100.446 119.139 104.333 118.583C108.221 118.028 110.721 119.417 123.495 108.864C136.27 98.311 152.099 69.1519 150.433 66.3749Z" fill="url(#paint42_radial_8078_27701)"/>
<path d="M150.433 66.3749C148.766 63.5978 140.435 59.4322 129.049 59.71C124.051 63.3201 121.551 68.3188 115.997 74.706C110.443 81.0933 112.109 96.9224 112.387 103.865C112.665 110.808 100.446 119.139 104.333 118.583C108.221 118.028 110.721 119.417 123.495 108.864C136.27 98.311 152.099 69.1519 150.433 66.3749Z" fill="url(#paint43_linear_8078_27701)" fill-opacity="0.55"/>
<path d="M90.4468 93.3142C88.503 85.5385 89.3359 75.5411 101.833 68.5985C101.833 68.0431 103.61 66.8767 110.719 66.6546C119.606 66.3768 116.437 77.4349 114.33 81.6496C111.275 87.7599 110.719 92.2024 104.61 94.9804C104.61 106.852 98.3437 111.82 92.5635 115.121C92.0768 115.399 91.3598 114.42 91.7046 113.978C97.6053 106.415 92.1368 100.075 90.4468 93.3142Z" fill="#A77F2B"/>
<path d="M90.4468 93.3142C88.503 85.5385 89.3359 75.5411 101.833 68.5985C101.833 68.0431 103.61 66.8767 110.719 66.6546C119.606 66.3768 116.437 77.4349 114.33 81.6496C111.275 87.7599 110.719 92.2024 104.61 94.9804C104.61 106.852 98.3437 111.82 92.5635 115.121C92.0768 115.399 91.3598 114.42 91.7046 113.978C97.6053 106.415 92.1368 100.075 90.4468 93.3142Z" fill="url(#paint44_linear_8078_27701)"/>
<path d="M90.4468 93.3142C88.503 85.5385 89.3359 75.5411 101.833 68.5985C101.833 68.0431 103.61 66.8767 110.719 66.6546C119.606 66.3768 116.437 77.4349 114.33 81.6496C111.275 87.7599 110.719 92.2024 104.61 94.9804C104.61 106.852 98.3437 111.82 92.5635 115.121C92.0768 115.399 91.3598 114.42 91.7046 113.978C97.6053 106.415 92.1368 100.075 90.4468 93.3142Z" fill="url(#paint45_linear_8078_27701)" fill-opacity="0.55"/>
<path d="M90.4468 93.3142C88.503 85.5385 89.3359 75.5411 101.833 68.5985C101.833 68.0431 103.61 66.8767 110.719 66.6546C119.606 66.3768 116.437 77.4349 114.33 81.6496C111.275 87.7599 110.719 92.2024 104.61 94.9804C104.61 106.852 98.3437 111.82 92.5635 115.121C92.0768 115.399 91.3598 114.42 91.7046 113.978C97.6053 106.415 92.1368 100.075 90.4468 93.3142Z" fill="url(#paint46_radial_8078_27701)"/>
<path d="M68.2311 96.6458C61.8438 88.5924 69.0644 78.0395 74.6184 74.7071C78.1051 71.839 84.3378 77.4841 81.0053 81.0943C77.6729 84.7044 77.6729 87.7592 81.0053 93.8687C83.3148 98.1027 82.6364 109.524 79.3694 114.004C78.8785 114.677 78.1448 114.131 78.3011 113.313C79.5693 106.676 74.0143 103.938 68.2311 96.6458Z" fill="#A77F2B"/>
<path d="M68.2311 96.6458C61.8438 88.5924 69.0644 78.0395 74.6184 74.7071C78.1051 71.839 84.3378 77.4841 81.0053 81.0943C77.6729 84.7044 77.6729 87.7592 81.0053 93.8687C83.3148 98.1027 82.6364 109.524 79.3694 114.004C78.8785 114.677 78.1448 114.131 78.3011 113.313C79.5693 106.676 74.0143 103.938 68.2311 96.6458Z" fill="url(#paint47_linear_8078_27701)"/>
<path d="M68.2311 96.6458C61.8438 88.5924 69.0644 78.0395 74.6184 74.7071C78.1051 71.839 84.3378 77.4841 81.0053 81.0943C77.6729 84.7044 77.6729 87.7592 81.0053 93.8687C83.3148 98.1027 82.6364 109.524 79.3694 114.004C78.8785 114.677 78.1448 114.131 78.3011 113.313C79.5693 106.676 74.0143 103.938 68.2311 96.6458Z" fill="url(#paint48_radial_8078_27701)"/>
<path d="M68.2311 96.6458C61.8438 88.5924 69.0644 78.0395 74.6184 74.7071C78.1051 71.839 84.3378 77.4841 81.0053 81.0943C77.6729 84.7044 77.6729 87.7592 81.0053 93.8687C83.3148 98.1027 82.6364 109.524 79.3694 114.004C78.8785 114.677 78.1448 114.131 78.3011 113.313C79.5693 106.676 74.0143 103.938 68.2311 96.6458Z" fill="url(#paint49_linear_8078_27701)" fill-opacity="0.55"/>
<path d="M45.7371 82.7594C44.9042 74.1505 51.0134 70.5404 55.1792 70.2627C57.4932 70.2627 62.5655 70.9292 64.3428 73.5951C66.5645 76.9275 58.7887 79.4269 55.1792 82.7594C51.5697 86.0918 62.1212 92.2013 62.1212 96.9223C62.1212 100.097 55.9722 103.625 51.4278 105.659C50.9585 105.869 50.5085 105.196 50.8426 104.805C52.4657 102.906 54.3964 100.052 55.1792 96.9223C56.5683 91.3682 46.5701 91.3682 45.7371 82.7594Z" fill="#A77F2B"/>
<path d="M45.7371 82.7594C44.9042 74.1505 51.0134 70.5404 55.1792 70.2627C57.4932 70.2627 62.5655 70.9292 64.3428 73.5951C66.5645 76.9275 58.7887 79.4269 55.1792 82.7594C51.5697 86.0918 62.1212 92.2013 62.1212 96.9223C62.1212 100.097 55.9722 103.625 51.4278 105.659C50.9585 105.869 50.5085 105.196 50.8426 104.805C52.4657 102.906 54.3964 100.052 55.1792 96.9223C56.5683 91.3682 46.5701 91.3682 45.7371 82.7594Z" fill="url(#paint50_linear_8078_27701)"/>
<path d="M45.7371 82.7594C44.9042 74.1505 51.0134 70.5404 55.1792 70.2627C57.4932 70.2627 62.5655 70.9292 64.3428 73.5951C66.5645 76.9275 58.7887 79.4269 55.1792 82.7594C51.5697 86.0918 62.1212 92.2013 62.1212 96.9223C62.1212 100.097 55.9722 103.625 51.4278 105.659C50.9585 105.869 50.5085 105.196 50.8426 104.805C52.4657 102.906 54.3964 100.052 55.1792 96.9223C56.5683 91.3682 46.5701 91.3682 45.7371 82.7594Z" fill="url(#paint51_radial_8078_27701)"/>
<path d="M45.7371 82.7594C44.9042 74.1505 51.0134 70.5404 55.1792 70.2627C57.4932 70.2627 62.5655 70.9292 64.3428 73.5951C66.5645 76.9275 58.7887 79.4269 55.1792 82.7594C51.5697 86.0918 62.1212 92.2013 62.1212 96.9223C62.1212 100.097 55.9722 103.625 51.4278 105.659C50.9585 105.869 50.5085 105.196 50.8426 104.805C52.4657 102.906 54.3964 100.052 55.1792 96.9223C56.5683 91.3682 46.5701 91.3682 45.7371 82.7594Z" fill="url(#paint52_linear_8078_27701)" fill-opacity="0.55"/>
<path d="M31.988 82.174C28.0736 66.1147 41.1982 64.0569 45.7223 64.6053C51.3474 71.0956 42.9817 71.3841 37.9336 74.413C35.0429 76.1474 33.6548 79.4633 33.0817 82.1072C32.9717 82.6151 32.111 82.6788 31.988 82.174Z" fill="#A77F2B"/>
<path d="M31.988 82.174C28.0736 66.1147 41.1982 64.0569 45.7223 64.6053C51.3474 71.0956 42.9817 71.3841 37.9336 74.413C35.0429 76.1474 33.6548 79.4633 33.0817 82.1072C32.9717 82.6151 32.111 82.6788 31.988 82.174Z" fill="url(#paint53_linear_8078_27701)"/>
<path d="M31.988 82.174C28.0736 66.1147 41.1982 64.0569 45.7223 64.6053C51.3474 71.0956 42.9817 71.3841 37.9336 74.413C35.0429 76.1474 33.6548 79.4633 33.0817 82.1072C32.9717 82.6151 32.111 82.6788 31.988 82.174Z" fill="url(#paint54_radial_8078_27701)"/>
<path d="M31.988 82.174C28.0736 66.1147 41.1982 64.0569 45.7223 64.6053C51.3474 71.0956 42.9817 71.3841 37.9336 74.413C35.0429 76.1474 33.6548 79.4633 33.0817 82.1072C32.9717 82.6151 32.111 82.6788 31.988 82.174Z" fill="url(#paint55_linear_8078_27701)" fill-opacity="0.55"/>
<path d="M28.5591 62.0083C33.8956 60.4218 34.1841 57.2487 38.6553 58.5468C43.9917 63.0179 38.0783 64.893 32.7418 66.768C27.4053 68.643 19.1455 66.1313 16.1553 63.7392C13.165 61.347 23.2226 63.5949 28.5591 62.0083Z" fill="#A77F2B"/>
<path d="M28.5591 62.0083C33.8956 60.4218 34.1841 57.2487 38.6553 58.5468C43.9917 63.0179 38.0783 64.893 32.7418 66.768C27.4053 68.643 19.1455 66.1313 16.1553 63.7392C13.165 61.347 23.2226 63.5949 28.5591 62.0083Z" fill="url(#paint56_linear_8078_27701)"/>
<path d="M28.5591 62.0083C33.8956 60.4218 34.1841 57.2487 38.6553 58.5468C43.9917 63.0179 38.0783 64.893 32.7418 66.768C27.4053 68.643 19.1455 66.1313 16.1553 63.7392C13.165 61.347 23.2226 63.5949 28.5591 62.0083Z" fill="url(#paint57_linear_8078_27701)" fill-opacity="0.55"/>
<path d="M28.5591 62.0083C33.8956 60.4218 34.1841 57.2487 38.6553 58.5468C43.9917 63.0179 38.0783 64.893 32.7418 66.768C27.4053 68.643 19.1455 66.1313 16.1553 63.7392C13.165 61.347 23.2226 63.5949 28.5591 62.0083Z" fill="url(#paint58_radial_8078_27701)"/>
<path d="M25.6925 47.2045C30.7694 43.743 32.231 46.8199 32.3271 48.7911C32.3271 52.9738 23.0964 55.5699 16.3175 56.5795C9.53868 57.5891 9.68291 51.8199 11.9906 52.541C14.2983 53.2622 19.3464 51.5314 25.6925 47.2045Z" fill="#A77F2B"/>
<path d="M25.6925 47.2045C30.7694 43.743 32.231 46.8199 32.3271 48.7911C32.3271 52.9738 23.0964 55.5699 16.3175 56.5795C9.53868 57.5891 9.68291 51.8199 11.9906 52.541C14.2983 53.2622 19.3464 51.5314 25.6925 47.2045Z" fill="url(#paint59_linear_8078_27701)"/>
<path d="M25.6925 47.2045C30.7694 43.743 32.231 46.8199 32.3271 48.7911C32.3271 52.9738 23.0964 55.5699 16.3175 56.5795C9.53868 57.5891 9.68291 51.8199 11.9906 52.541C14.2983 53.2622 19.3464 51.5314 25.6925 47.2045Z" fill="url(#paint60_radial_8078_27701)"/>
<path d="M191.23 77.0211C197.94 77.6311 199.874 83.1984 199.959 86.418C202.823 91.6172 199.689 94.388 197.593 94.388C194.978 94.388 183.426 97.3554 177.325 99.8972C171.225 102.439 163.76 104.741 155.626 108.553C147.492 112.366 138.869 109.048 148.782 99.8972C158.695 90.7468 182.842 76.2586 191.23 77.0211Z" fill="#A77F2B"/>
<path d="M191.23 77.0211C197.94 77.6311 199.874 83.1984 199.959 86.418C202.823 91.6172 199.689 94.388 197.593 94.388C194.978 94.388 183.426 97.3554 177.325 99.8972C171.225 102.439 163.76 104.741 155.626 108.553C147.492 112.366 138.869 109.048 148.782 99.8972C158.695 90.7468 182.842 76.2586 191.23 77.0211Z" fill="url(#paint61_linear_8078_27701)"/>
<path d="M191.23 77.0211C197.94 77.6311 199.874 83.1984 199.959 86.418C202.823 91.6172 199.689 94.388 197.593 94.388C194.978 94.388 183.426 97.3554 177.325 99.8972C171.225 102.439 163.76 104.741 155.626 108.553C147.492 112.366 138.869 109.048 148.782 99.8972C158.695 90.7468 182.842 76.2586 191.23 77.0211Z" fill="url(#paint62_linear_8078_27701)" fill-opacity="0.55"/>
<path d="M191.23 77.0211C197.94 77.6311 199.874 83.1984 199.959 86.418C202.823 91.6172 199.689 94.388 197.593 94.388C194.978 94.388 183.426 97.3554 177.325 99.8972C171.225 102.439 163.76 104.741 155.626 108.553C147.492 112.366 138.869 109.048 148.782 99.8972C158.695 90.7468 182.842 76.2586 191.23 77.0211Z" fill="url(#paint63_radial_8078_27701)"/>
<defs>
<linearGradient id="paint0_linear_8078_27701" x1="105.31" y1="55.3369" x2="100.492" y2="57.8155" gradientUnits="userSpaceOnUse">
<stop stop-color="#3C698A"/>
<stop offset="1" stop-color="#174374"/>
</linearGradient>
<radialGradient id="paint1_radial_8078_27701" cx="0" cy="0" r="1" gradientUnits="userSpaceOnUse" gradientTransform="translate(96.9746 26.2508) rotate(97.8135) scale(23.8822 58.5545)">
<stop offset="0.205" stop-color="#A1DADD"/>
<stop offset="0.605" stop-color="#37658C"/>
<stop offset="0.848361" stop-color="#184475"/>
</radialGradient>
<radialGradient id="paint2_radial_8078_27701" cx="0" cy="0" r="1" gradientUnits="userSpaceOnUse" gradientTransform="translate(64.5517 31.5319) rotate(-51.0823) scale(6.14841 19.3102)">
<stop offset="0.34802" stop-color="#2B6A8D"/>
<stop offset="1" stop-color="#2B6A8D" stop-opacity="0"/>
</radialGradient>
<radialGradient id="paint3_radial_8078_27701" cx="0" cy="0" r="1" gradientUnits="userSpaceOnUse" gradientTransform="translate(90.3235 22.575) rotate(94.8138) scale(13.2838 63.3559)">
<stop stop-color="#A1DADD"/>
<stop offset="0.870003" stop-color="#A1DADD" stop-opacity="0"/>
</radialGradient>
<linearGradient id="paint4_linear_8078_27701" x1="102.395" y1="29.6135" x2="104.266" y2="36.0137" gradientUnits="userSpaceOnUse">
<stop stop-color="#5E90AA"/>
<stop offset="1" stop-color="#174374"/>
</linearGradient>
<radialGradient id="paint5_radial_8078_27701" cx="0" cy="0" r="1" gradientUnits="userSpaceOnUse" gradientTransform="translate(86.8349 32.2065) rotate(54.2821) scale(5.65084 14.6487)">
<stop stop-color="#82B7C5"/>
<stop offset="1" stop-color="#82B7C5" stop-opacity="0"/>
</radialGradient>
<radialGradient id="paint6_radial_8078_27701" cx="0" cy="0" r="1" gradientUnits="userSpaceOnUse" gradientTransform="translate(64.1661 22.5554) rotate(90) scale(1.59711 2.84564)">
<stop stop-color="#6585A7"/>
<stop offset="1" stop-color="#184475"/>
</radialGradient>
<linearGradient id="paint7_linear_8078_27701" x1="189.865" y1="52.4897" x2="189.865" y2="117.195" gradientUnits="userSpaceOnUse">
<stop stop-color="#D7A12C"/>
<stop offset="1" stop-color="#A77F2B"/>
</linearGradient>
<linearGradient id="paint8_linear_8078_27701" x1="151.442" y1="44.7119" x2="179.423" y2="50.3741" gradientUnits="userSpaceOnUse">
<stop stop-color="#92D1A9"/>
<stop offset="1" stop-color="#92D1A9" stop-opacity="0"/>
</linearGradient>
<radialGradient id="paint9_radial_8078_27701" cx="0" cy="0" r="1" gradientUnits="userSpaceOnUse" gradientTransform="translate(175.239 49.0111) rotate(170.232) scale(23.5382 13.3482)">
<stop stop-color="#E7C200"/>
<stop offset="1" stop-color="#E7C200" stop-opacity="0"/>
</radialGradient>
<linearGradient id="paint10_linear_8078_27701" x1="170.954" y1="56.992" x2="170.954" y2="68.9322" gradientUnits="userSpaceOnUse">
<stop stop-color="#92D1A9"/>
<stop offset="0.607029" stop-color="#92D1A9" stop-opacity="0"/>
</linearGradient>
<radialGradient id="paint11_radial_8078_27701" cx="0" cy="0" r="1" gradientUnits="userSpaceOnUse" gradientTransform="translate(178.579 60.0276) rotate(168.963) scale(17.504 11.156)">
<stop stop-color="#E7C200"/>
<stop offset="1" stop-color="#E7C200" stop-opacity="0"/>
</radialGradient>
<linearGradient id="paint12_linear_8078_27701" x1="207.516" y1="89.5182" x2="218.683" y2="107.725" gradientUnits="userSpaceOnUse">
<stop stop-color="#2A8A46" stop-opacity="0"/>
<stop offset="0.73" stop-color="#55641C"/>
</linearGradient>
<linearGradient id="paint13_linear_8078_27701" x1="209.238" y1="83.0772" x2="209.238" y2="113.602" gradientUnits="userSpaceOnUse">
<stop stop-color="#92D1A9"/>
<stop offset="0.607029" stop-color="#92D1A9" stop-opacity="0"/>
</linearGradient>
<radialGradient id="paint14_radial_8078_27701" cx="0" cy="0" r="1" gradientUnits="userSpaceOnUse" gradientTransform="translate(215.942 90.8376) rotate(150.443) scale(17.3668 25.276)">
<stop stop-color="#E7C200"/>
<stop offset="1" stop-color="#E7C200" stop-opacity="0"/>
</radialGradient>
<linearGradient id="paint15_linear_8078_27701" x1="192.115" y1="50.1919" x2="200.402" y2="71.6831" gradientUnits="userSpaceOnUse">
<stop stop-color="#2A8A46" stop-opacity="0"/>
<stop offset="0.73" stop-color="#55641C"/>
</linearGradient>
<linearGradient id="paint16_linear_8078_27701" x1="194.813" y1="43.8457" x2="194.813" y2="73.9207" gradientUnits="userSpaceOnUse">
<stop stop-color="#92D1A9"/>
<stop offset="0.607029" stop-color="#92D1A9" stop-opacity="0"/>
</linearGradient>
<radialGradient id="paint17_radial_8078_27701" cx="0" cy="0" r="1" gradientUnits="userSpaceOnUse" gradientTransform="translate(205.32 51.4918) rotate(160.378) scale(25.135 26.9668)">
<stop stop-color="#E7C200"/>
<stop offset="1" stop-color="#E7C200" stop-opacity="0"/>
</radialGradient>
<linearGradient id="paint18_linear_8078_27701" x1="173.051" y1="12.9899" x2="174.208" y2="54.2464" gradientUnits="userSpaceOnUse">
<stop stop-color="#2A8A46" stop-opacity="0"/>
<stop offset="0.964174" stop-color="#55641C"/>
</linearGradient>
<linearGradient id="paint19_linear_8078_27701" x1="187.773" y1="11.6934" x2="178.834" y2="61.9626" gradientUnits="userSpaceOnUse">
<stop stop-color="#92D1A9"/>
<stop offset="0.621678" stop-color="#92D1A9" stop-opacity="0"/>
</linearGradient>
<radialGradient id="paint20_radial_8078_27701" cx="0" cy="0" r="1" gradientUnits="userSpaceOnUse" gradientTransform="translate(192.634 34.6656) rotate(161.034) scale(22.7026 32.6857)">
<stop stop-color="#E7C200"/>
<stop offset="1" stop-color="#E7C200" stop-opacity="0"/>
</radialGradient>
<linearGradient id="paint21_linear_8078_27701" x1="166.442" y1="79.0388" x2="172.837" y2="84.8655" gradientUnits="userSpaceOnUse">
<stop stop-color="#2A8A46" stop-opacity="0"/>
<stop offset="1" stop-color="#55641C"/>
</linearGradient>
<radialGradient id="paint22_radial_8078_27701" cx="0" cy="0" r="1" gradientUnits="userSpaceOnUse" gradientTransform="translate(171.16 65.879) rotate(159.365) scale(44.7414 19.5511)">
<stop stop-color="#E7C200"/>
<stop offset="0.69193" stop-color="#E7C200" stop-opacity="0"/>
</radialGradient>
<linearGradient id="paint23_linear_8078_27701" x1="160.672" y1="83.0773" x2="164.711" y2="66.058" gradientUnits="userSpaceOnUse">
<stop stop-color="#92D1A9"/>
<stop offset="1" stop-color="#92D1A9" stop-opacity="0"/>
</linearGradient>
<linearGradient id="paint24_linear_8078_27701" x1="32.3277" y1="33.0944" x2="32.3277" y2="48.7386" gradientUnits="userSpaceOnUse">
<stop stop-color="#92D1A9"/>
<stop offset="0.607029" stop-color="#92D1A9" stop-opacity="0"/>
</linearGradient>
<radialGradient id="paint25_radial_8078_27701" cx="0" cy="0" r="1" gradientUnits="userSpaceOnUse" gradientTransform="translate(35.4314 37.0718) rotate(147.879) scale(8.25758 12.6126)">
<stop stop-color="#E7C200"/>
<stop offset="1" stop-color="#E7C200" stop-opacity="0"/>
</radialGradient>
<linearGradient id="paint26_linear_8078_27701" x1="45.0149" y1="44.0784" x2="45.0149" y2="57.3927" gradientUnits="userSpaceOnUse">
<stop stop-color="#92D1A9"/>
<stop offset="0.607029" stop-color="#92D1A9" stop-opacity="0"/>
</linearGradient>
<radialGradient id="paint27_radial_8078_27701" cx="0" cy="0" r="1" gradientUnits="userSpaceOnUse" gradientTransform="translate(51.8874 47.4634) rotate(166.434) scale(15.9302 12.3206)">
<stop stop-color="#E7C200"/>
<stop offset="1" stop-color="#E7C200" stop-opacity="0"/>
</radialGradient>
<linearGradient id="paint28_linear_8078_27701" x1="48.4318" y1="53.6608" x2="56.9799" y2="55.0374" gradientUnits="userSpaceOnUse">
<stop stop-color="#92D1A9"/>
<stop offset="1" stop-color="#92D1A9" stop-opacity="0"/>
</linearGradient>
<linearGradient id="paint29_linear_8078_27701" x1="50.6256" y1="58.5568" x2="55.6736" y2="61.8742" gradientUnits="userSpaceOnUse">
<stop stop-color="#2A8A46" stop-opacity="0"/>
<stop offset="0.73" stop-color="#55641C"/>
</linearGradient>
<radialGradient id="paint30_radial_8078_27701" cx="0" cy="0" r="1" gradientUnits="userSpaceOnUse" gradientTransform="translate(58.2135 54.9275) rotate(-158.76) scale(8.29571 16.2481)">
<stop stop-color="#E7C200"/>
<stop offset="1" stop-color="#E7C200" stop-opacity="0"/>
</radialGradient>
<linearGradient id="paint31_linear_8078_27701" x1="78.8955" y1="67.0665" x2="79.3176" y2="74.5567" gradientUnits="userSpaceOnUse">
<stop stop-color="#2A8A46" stop-opacity="0"/>
<stop offset="0.73" stop-color="#55641C"/>
</linearGradient>
<linearGradient id="paint32_linear_8078_27701" x1="76.8852" y1="56.5232" x2="76.8852" y2="74.3773" gradientUnits="userSpaceOnUse">
<stop stop-color="#92D1A9"/>
<stop offset="0.607029" stop-color="#92D1A9" stop-opacity="0"/>
</linearGradient>
<radialGradient id="paint33_radial_8078_27701" cx="0" cy="0" r="1" gradientUnits="userSpaceOnUse" gradientTransform="translate(61.8763 67.4991) rotate(-16.9582) scale(33.6256 15.2037)">
<stop offset="0.658216" stop-color="#E7C200" stop-opacity="0"/>
<stop offset="1" stop-color="#E7C200"/>
</radialGradient>
<linearGradient id="paint34_linear_8078_27701" x1="125.786" y1="60.0456" x2="126.018" y2="64.5712" gradientUnits="userSpaceOnUse">
<stop stop-color="#2A8A46" stop-opacity="0"/>
<stop offset="0.449493" stop-color="#55641C"/>
</linearGradient>
<linearGradient id="paint35_linear_8078_27701" x1="118.167" y1="55.614" x2="128.673" y2="51.1718" gradientUnits="userSpaceOnUse">
<stop stop-color="#92D1A9"/>
<stop offset="0.791485" stop-color="#92D1A9" stop-opacity="0"/>
</linearGradient>
<radialGradient id="paint36_radial_8078_27701" cx="0" cy="0" r="1" gradientUnits="userSpaceOnUse" gradientTransform="translate(129.898 56.4198) rotate(172.602) scale(8.02118 10.04)">
<stop stop-color="#E7C200"/>
<stop offset="1" stop-color="#E7C200" stop-opacity="0"/>
</radialGradient>
<linearGradient id="paint37_linear_8078_27701" x1="109.121" y1="62.0968" x2="109.451" y2="68.0653" gradientUnits="userSpaceOnUse">
<stop stop-color="#2A8A46" stop-opacity="0"/>
<stop offset="0.449493" stop-color="#55641C"/>
</linearGradient>
<linearGradient id="paint38_linear_8078_27701" x1="99.809" y1="56.2498" x2="110.771" y2="63.1729" gradientUnits="userSpaceOnUse">
<stop stop-color="#92D1A9"/>
<stop offset="1" stop-color="#92D1A9" stop-opacity="0"/>
</linearGradient>
<radialGradient id="paint39_radial_8078_27701" cx="0" cy="0" r="1" gradientUnits="userSpaceOnUse" gradientTransform="translate(114.146 57.313) rotate(172.021) scale(9.81656 13.2285)">
<stop stop-color="#E7C200"/>
<stop offset="1" stop-color="#E7C200" stop-opacity="0"/>
</radialGradient>
<linearGradient id="paint40_linear_8078_27701" x1="118.846" y1="53.3543" x2="117.98" y2="81.3351" gradientUnits="userSpaceOnUse">
<stop stop-color="#D7A12C"/>
<stop offset="1" stop-color="#A77F2B"/>
</linearGradient>
<linearGradient id="paint41_linear_8078_27701" x1="103.569" y1="64.1432" x2="110.474" y2="111.773" gradientUnits="userSpaceOnUse">
<stop stop-color="#2A8A46" stop-opacity="0"/>
<stop offset="0.964174" stop-color="#55641C"/>
</linearGradient>
<radialGradient id="paint42_radial_8078_27701" cx="0" cy="0" r="1" gradientUnits="userSpaceOnUse" gradientTransform="translate(144.52 77.5851) rotate(161.376) scale(36.2238 41.5283)">
<stop stop-color="#E7C200"/>
<stop offset="1" stop-color="#E7C200" stop-opacity="0"/>
</radialGradient>
<linearGradient id="paint43_linear_8078_27701" x1="127.061" y1="59.6968" x2="127.061" y2="118.61" gradientUnits="userSpaceOnUse">
<stop stop-color="#92D1A9"/>
<stop offset="0.621678" stop-color="#92D1A9" stop-opacity="0"/>
</linearGradient>
<linearGradient id="paint44_linear_8078_27701" x1="88.2253" y1="70.4852" x2="96.5435" y2="110.72" gradientUnits="userSpaceOnUse">
<stop stop-color="#2A8A46" stop-opacity="0"/>
<stop offset="0.964174" stop-color="#55641C"/>
</linearGradient>
<linearGradient id="paint45_linear_8078_27701" x1="109.327" y1="85.9621" x2="102.437" y2="117.475" gradientUnits="userSpaceOnUse">
<stop stop-color="#92D1A9"/>
<stop offset="0.621678" stop-color="#92D1A9" stop-opacity="0"/>
</linearGradient>
<radialGradient id="paint46_radial_8078_27701" cx="0" cy="0" r="1" gradientUnits="userSpaceOnUse" gradientTransform="translate(116.649 75.866) rotate(164.118) scale(27.4069 40.5347)">
<stop stop-color="#E7C200"/>
<stop offset="1" stop-color="#E7C200" stop-opacity="0"/>
</radialGradient>
<linearGradient id="paint47_linear_8078_27701" x1="65.731" y1="77.0622" x2="75.0918" y2="108.633" gradientUnits="userSpaceOnUse">
<stop stop-color="#2A8A46" stop-opacity="0"/>
<stop offset="0.964174" stop-color="#55641C"/>
</linearGradient>
<radialGradient id="paint48_radial_8078_27701" cx="0" cy="0" r="1" gradientUnits="userSpaceOnUse" gradientTransform="translate(79.872 86.5556) rotate(145.423) scale(14.3964 25.4835)">
<stop offset="0.286932" stop-color="#E7C200"/>
<stop offset="1" stop-color="#E7C200" stop-opacity="0"/>
</radialGradient>
<linearGradient id="paint49_linear_8078_27701" x1="73.8432" y1="73.9219" x2="73.8432" y2="115.53" gradientUnits="userSpaceOnUse">
<stop stop-color="#92D1A9"/>
<stop offset="0.621678" stop-color="#92D1A9" stop-opacity="0"/>
</linearGradient>
<linearGradient id="paint50_linear_8078_27701" x1="45.6602" y1="73.0084" x2="51.9749" y2="101.646" gradientUnits="userSpaceOnUse">
<stop stop-color="#2A8A46" stop-opacity="0"/>
<stop offset="0.964174" stop-color="#55641C"/>
</linearGradient>
<radialGradient id="paint51_radial_8078_27701" cx="0" cy="0" r="1" gradientUnits="userSpaceOnUse" gradientTransform="translate(57.6922 74.1341) rotate(123.124) scale(17.0967 26.2905)">
<stop stop-color="#E7C200"/>
<stop offset="1" stop-color="#E7C200" stop-opacity="0"/>
</radialGradient>
<linearGradient id="paint52_linear_8078_27701" x1="60.5768" y1="77.0187" x2="45.6602" y2="79.9033" gradientUnits="userSpaceOnUse">
<stop stop-color="#92D1A9"/>
<stop offset="0.621678" stop-color="#92D1A9" stop-opacity="0"/>
</linearGradient>
<linearGradient id="paint53_linear_8078_27701" x1="31.2686" y1="66.0585" x2="33.6217" y2="82.452" gradientUnits="userSpaceOnUse">
<stop stop-color="#2A8A46" stop-opacity="0"/>
<stop offset="0.964174" stop-color="#55641C"/>
</linearGradient>
<radialGradient id="paint54_radial_8078_27701" cx="0" cy="0" r="1" gradientUnits="userSpaceOnUse" gradientTransform="translate(45.4981 70.6831) rotate(161.547) scale(12.5742 14.302)">
<stop stop-color="#E7C200"/>
<stop offset="1" stop-color="#E7C200" stop-opacity="0"/>
</radialGradient>
<linearGradient id="paint55_linear_8078_27701" x1="39.4316" y1="64.5287" x2="47.5947" y2="84.7974" gradientUnits="userSpaceOnUse">
<stop stop-color="#92D1A9"/>
<stop offset="0.30317" stop-color="#92D1A9" stop-opacity="0"/>
</linearGradient>
<linearGradient id="paint56_linear_8078_27701" x1="22.5012" y1="61.1538" x2="20.1935" y2="65.7692" gradientUnits="userSpaceOnUse">
<stop offset="0.205155" stop-color="#2A8A46" stop-opacity="0"/>
<stop offset="0.964174" stop-color="#55641C"/>
</linearGradient>
<linearGradient id="paint57_linear_8078_27701" x1="36.7801" y1="62.8323" x2="33.1743" y2="59.4231" gradientUnits="userSpaceOnUse">
<stop stop-color="#92D1A9"/>
<stop offset="0.621678" stop-color="#92D1A9" stop-opacity="0"/>
</linearGradient>
<radialGradient id="paint58_radial_8078_27701" cx="0" cy="0" r="1" gradientUnits="userSpaceOnUse" gradientTransform="translate(33.0301 59.1346) rotate(170.287) scale(16.2425 9.38003)">
<stop stop-color="#E7C200"/>
<stop offset="1" stop-color="#E7C200" stop-opacity="0"/>
</radialGradient>
<linearGradient id="paint59_linear_8078_27701" x1="16.0248" y1="47.4089" x2="16.9315" y2="60.3678" gradientUnits="userSpaceOnUse">
<stop offset="0.205155" stop-color="#2A8A46" stop-opacity="0"/>
<stop offset="0.964174" stop-color="#55641C"/>
</linearGradient>
<radialGradient id="paint60_radial_8078_27701" cx="0" cy="0" r="1" gradientUnits="userSpaceOnUse" gradientTransform="translate(30.262 45.6389) rotate(153.492) scale(19.5381 11.6307)">
<stop stop-color="#E7C200"/>
<stop offset="1" stop-color="#E7C200" stop-opacity="0"/>
</radialGradient>
<linearGradient id="paint61_linear_8078_27701" x1="168.223" y1="90.0086" x2="175.969" y2="105.96" gradientUnits="userSpaceOnUse">
<stop stop-color="#2A8A46" stop-opacity="0"/>
<stop offset="0.73" stop-color="#55641C"/>
</linearGradient>
<linearGradient id="paint62_linear_8078_27701" x1="160.962" y1="90.5765" x2="172.723" y2="110.108" gradientUnits="userSpaceOnUse">
<stop stop-color="#92D1A9"/>
<stop offset="0.607029" stop-color="#92D1A9" stop-opacity="0"/>
</linearGradient>
<radialGradient id="paint63_radial_8078_27701" cx="0" cy="0" r="1" gradientUnits="userSpaceOnUse" gradientTransform="translate(185.193 74.1342) rotate(149.329) scale(47.5016 20.9624)">
<stop stop-color="#E7C200"/>
<stop offset="0.587511" stop-color="#E7C200" stop-opacity="0"/>
</radialGradient>
</defs>
</svg>
